frame:0    pts:0       pts_time:0
lavfi.astats.Overall.RMS_level=-44.845422
frame:1    pts:1024    pts_time:0.0213333
lavfi.astats.Overall.RMS_level=-43.700111
frame:2    pts:2048    pts_time:0.0426667
lavfi.astats.Overall.RMS_level=-48.868132
frame:3    pts:3072    pts_time:0.064
lavfi.astats.Overall.RMS_level=-45.847365
frame:4    pts:4096    pts_time:0.0853333
lavfi.astats.Overall.RMS_level=-42.213495
frame:5    pts:5120    pts_time:0.106667
lavfi.astats.Overall.RMS_level=-45.141430
frame:6    pts:6144    pts_time:0.128
lavfi.astats.Overall.RMS_level=-45.140101
frame:7    pts:7168    pts_time:0.149333
lavfi.astats.Overall.RMS_level=-49.679447
frame:8    pts:8192    pts_time:0.170667
lavfi.astats.Overall.RMS_level=-54.222445
frame:9    pts:9216    pts_time:0.192
lavfi.astats.Overall.RMS_level=-59.856250
frame:10   pts:10240   pts_time:0.213333
lavfi.astats.Overall.RMS_level=-68.401769
frame:11   pts:11264   pts_time:0.234667
lavfi.astats.Overall.RMS_level=-77.050439
frame:12   pts:12288   pts_time:0.256
lavfi.astats.Overall.RMS_level=-88.195786
frame:13   pts:13312   pts_time:0.277333
lavfi.astats.Overall.RMS_level=-61.907121
frame:14   pts:14336   pts_time:0.298667
lavfi.astats.Overall.RMS_level=-62.346925
frame:15   pts:15360   pts_time:0.32
lavfi.astats.Overall.RMS_level=-85.015666
frame:16   pts:16384   pts_time:0.341333
lavfi.astats.Overall.RMS_level=-90.601622
frame:17   pts:17408   pts_time:0.362667
lavfi.astats.Overall.RMS_level=-91.163745
frame:18   pts:18432   pts_time:0.384
lavfi.astats.Overall.RMS_level=-85.015513
frame:19   pts:19456   pts_time:0.405333
lavfi.astats.Overall.RMS_level=-87.230993
frame:20   pts:20480   pts_time:0.426667
lavfi.astats.Overall.RMS_level=-89.773913
frame:21   pts:21504   pts_time:0.448
lavfi.astats.Overall.RMS_level=-90.850652
frame:22   pts:22528   pts_time:0.469333
lavfi.astats.Overall.RMS_level=-63.921024
frame:23   pts:23552   pts_time:0.490667
lavfi.astats.Overall.RMS_level=-39.876047
frame:24   pts:24576   pts_time:0.512
lavfi.astats.Overall.RMS_level=-45.701544
frame:25   pts:25600   pts_time:0.533333
lavfi.astats.Overall.RMS_level=-48.323938
frame:26   pts:26624   pts_time:0.554667
lavfi.astats.Overall.RMS_level=-47.535416
frame:27   pts:27648   pts_time:0.576
lavfi.astats.Overall.RMS_level=-49.509254
frame:28   pts:28672   pts_time:0.597333
lavfi.astats.Overall.RMS_level=-51.558578
frame:29   pts:29696   pts_time:0.618667
lavfi.astats.Overall.RMS_level=-53.276913
frame:30   pts:30720   pts_time:0.64
lavfi.astats.Overall.RMS_level=-51.752680
frame:31   pts:31744   pts_time:0.661333
lavfi.astats.Overall.RMS_level=-52.446250
frame:32   pts:32768   pts_time:0.682667
lavfi.astats.Overall.RMS_level=-48.987408
frame:33   pts:33792   pts_time:0.704
lavfi.astats.Overall.RMS_level=-51.291231
frame:34   pts:34816   pts_time:0.725333
lavfi.astats.Overall.RMS_level=-54.692200
frame:35   pts:35840   pts_time:0.746667
lavfi.astats.Overall.RMS_level=-62.998476
frame:36   pts:36864   pts_time:0.768
lavfi.astats.Overall.RMS_level=-70.170142
frame:37   pts:37888   pts_time:0.789333
lavfi.astats.Overall.RMS_level=-72.858868
frame:38   pts:38912   pts_time:0.810667
lavfi.astats.Overall.RMS_level=-77.444450
frame:39   pts:39936   pts_time:0.832
lavfi.astats.Overall.RMS_level=-86.655227
frame:40   pts:40960   pts_time:0.853333
lavfi.astats.Overall.RMS_level=-86.062991
frame:41   pts:41984   pts_time:0.874667
lavfi.astats.Overall.RMS_level=-55.796953
frame:42   pts:43008   pts_time:0.896
lavfi.astats.Overall.RMS_level=-43.036257
frame:43   pts:44032   pts_time:0.917333
lavfi.astats.Overall.RMS_level=-41.579718
frame:44   pts:45056   pts_time:0.938667
lavfi.astats.Overall.RMS_level=-40.093432
frame:45   pts:46080   pts_time:0.96
lavfi.astats.Overall.RMS_level=-44.815795
frame:46   pts:47104   pts_time:0.981333
lavfi.astats.Overall.RMS_level=-45.422380
frame:47   pts:48128   pts_time:1.00267
lavfi.astats.Overall.RMS_level=-45.668148
frame:48   pts:49152   pts_time:1.024
lavfi.astats.Overall.RMS_level=-52.003227
frame:49   pts:50176   pts_time:1.04533
lavfi.astats.Overall.RMS_level=-56.793780
frame:50   pts:51200   pts_time:1.06667
lavfi.astats.Overall.RMS_level=-57.050620
frame:51   pts:52224   pts_time:1.088
lavfi.astats.Overall.RMS_level=-65.559461
frame:52   pts:53248   pts_time:1.10933
lavfi.astats.Overall.RMS_level=-84.565527
frame:53   pts:54272   pts_time:1.13067
lavfi.astats.Overall.RMS_level=-87.934078
frame:54   pts:55296   pts_time:1.152
lavfi.astats.Overall.RMS_level=-86.436906
frame:55   pts:56320   pts_time:1.17333
lavfi.astats.Overall.RMS_level=-80.483476
frame:56   pts:57344   pts_time:1.19467
lavfi.astats.Overall.RMS_level=-70.270875
frame:57   pts:58368   pts_time:1.216
lavfi.astats.Overall.RMS_level=-55.188235
frame:58   pts:59392   pts_time:1.23733
lavfi.astats.Overall.RMS_level=-53.949460
frame:59   pts:60416   pts_time:1.25867
lavfi.astats.Overall.RMS_level=-53.324180
frame:60   pts:61440   pts_time:1.28
lavfi.astats.Overall.RMS_level=-56.489715
frame:61   pts:62464   pts_time:1.30133
lavfi.astats.Overall.RMS_level=-62.831348
frame:62   pts:63488   pts_time:1.32267
lavfi.astats.Overall.RMS_level=-69.374594
frame:63   pts:64512   pts_time:1.344
lavfi.astats.Overall.RMS_level=-68.679845
frame:64   pts:65536   pts_time:1.36533
lavfi.astats.Overall.RMS_level=-79.474718
frame:65   pts:66560   pts_time:1.38667
lavfi.astats.Overall.RMS_level=-74.213039
frame:66   pts:67584   pts_time:1.408
lavfi.astats.Overall.RMS_level=-76.903615
frame:67   pts:68608   pts_time:1.42933
lavfi.astats.Overall.RMS_level=-74.356114
frame:68   pts:69632   pts_time:1.45067
lavfi.astats.Overall.RMS_level=-94.103899
frame:69   pts:70656   pts_time:1.472
lavfi.astats.Overall.RMS_level=-95.254573
frame:70   pts:71680   pts_time:1.49333
lavfi.astats.Overall.RMS_level=-91.840556
frame:71   pts:72704   pts_time:1.51467
lavfi.astats.Overall.RMS_level=-91.801186
frame:72   pts:73728   pts_time:1.536
lavfi.astats.Overall.RMS_level=-96.263062
frame:73   pts:74752   pts_time:1.55733
lavfi.astats.Overall.RMS_level=-93.727852
frame:74   pts:75776   pts_time:1.57867
lavfi.astats.Overall.RMS_level=-85.789730
frame:75   pts:76800   pts_time:1.6
lavfi.astats.Overall.RMS_level=-85.062521
frame:76   pts:77824   pts_time:1.62133
lavfi.astats.Overall.RMS_level=-94.806214
frame:77   pts:78848   pts_time:1.64267
lavfi.astats.Overall.RMS_level=-93.657576
frame:78   pts:79872   pts_time:1.664
lavfi.astats.Overall.RMS_level=-94.247405
frame:79   pts:80896   pts_time:1.68533
lavfi.astats.Overall.RMS_level=-94.700461
frame:80   pts:81920   pts_time:1.70667
lavfi.astats.Overall.RMS_level=-85.305811
frame:81   pts:82944   pts_time:1.728
lavfi.astats.Overall.RMS_level=-60.289155
frame:82   pts:83968   pts_time:1.74933
lavfi.astats.Overall.RMS_level=-56.763061
frame:83   pts:84992   pts_time:1.77067
lavfi.astats.Overall.RMS_level=-57.551946
frame:84   pts:86016   pts_time:1.792
lavfi.astats.Overall.RMS_level=-56.233717
frame:85   pts:87040   pts_time:1.81333
lavfi.astats.Overall.RMS_level=-57.505191
frame:86   pts:88064   pts_time:1.83467
lavfi.astats.Overall.RMS_level=-57.090220
frame:87   pts:89088   pts_time:1.856
lavfi.astats.Overall.RMS_level=-40.309326
frame:88   pts:90112   pts_time:1.87733
lavfi.astats.Overall.RMS_level=-29.164976
frame:89   pts:91136   pts_time:1.89867
lavfi.astats.Overall.RMS_level=-19.185188
frame:90   pts:92160   pts_time:1.92
lavfi.astats.Overall.RMS_level=-16.386840
frame:91   pts:93184   pts_time:1.94133
lavfi.astats.Overall.RMS_level=-22.005999
frame:92   pts:94208   pts_time:1.96267
lavfi.astats.Overall.RMS_level=-33.096360
frame:93   pts:95232   pts_time:1.984
lavfi.astats.Overall.RMS_level=-35.683239
frame:94   pts:96256   pts_time:2.00533
lavfi.astats.Overall.RMS_level=-39.201452
frame:95   pts:97280   pts_time:2.02667
lavfi.astats.Overall.RMS_level=-39.863012
frame:96   pts:98304   pts_time:2.048
lavfi.astats.Overall.RMS_level=-40.580789
frame:97   pts:99328   pts_time:2.06933
lavfi.astats.Overall.RMS_level=-33.087067
frame:98   pts:100352  pts_time:2.09067
lavfi.astats.Overall.RMS_level=-19.481374
frame:99   pts:101376  pts_time:2.112
lavfi.astats.Overall.RMS_level=-17.445982
frame:100  pts:102400  pts_time:2.13333
lavfi.astats.Overall.RMS_level=-20.248621
frame:101  pts:103424  pts_time:2.15467
lavfi.astats.Overall.RMS_level=-25.390040
frame:102  pts:104448  pts_time:2.176
lavfi.astats.Overall.RMS_level=-24.060812
frame:103  pts:105472  pts_time:2.19733
lavfi.astats.Overall.RMS_level=-25.396069
frame:104  pts:106496  pts_time:2.21867
lavfi.astats.Overall.RMS_level=-32.646978
frame:105  pts:107520  pts_time:2.24
lavfi.astats.Overall.RMS_level=-32.831339
frame:106  pts:108544  pts_time:2.26133
lavfi.astats.Overall.RMS_level=-32.585519
frame:107  pts:109568  pts_time:2.28267
lavfi.astats.Overall.RMS_level=-25.640990
frame:108  pts:110592  pts_time:2.304
lavfi.astats.Overall.RMS_level=-25.579792
frame:109  pts:111616  pts_time:2.32533
lavfi.astats.Overall.RMS_level=-27.375137
frame:110  pts:112640  pts_time:2.34667
lavfi.astats.Overall.RMS_level=-27.627209
frame:111  pts:113664  pts_time:2.368
lavfi.astats.Overall.RMS_level=-33.724586
frame:112  pts:114688  pts_time:2.38933
lavfi.astats.Overall.RMS_level=-32.093832
frame:113  pts:115712  pts_time:2.41067
lavfi.astats.Overall.RMS_level=-33.558761
frame:114  pts:116736  pts_time:2.432
lavfi.astats.Overall.RMS_level=-36.256069
frame:115  pts:117760  pts_time:2.45333
lavfi.astats.Overall.RMS_level=-36.761107
frame:116  pts:118784  pts_time:2.47467
lavfi.astats.Overall.RMS_level=-39.006918
frame:117  pts:119808  pts_time:2.496
lavfi.astats.Overall.RMS_level=-35.742645
frame:118  pts:120832  pts_time:2.51733
lavfi.astats.Overall.RMS_level=-33.521807
frame:119  pts:121856  pts_time:2.53867
lavfi.astats.Overall.RMS_level=-33.397422
frame:120  pts:122880  pts_time:2.56
lavfi.astats.Overall.RMS_level=-38.511936
frame:121  pts:123904  pts_time:2.58133
lavfi.astats.Overall.RMS_level=-30.443292
frame:122  pts:124928  pts_time:2.60267
lavfi.astats.Overall.RMS_level=-27.782217
frame:123  pts:125952  pts_time:2.624
lavfi.astats.Overall.RMS_level=-27.728853
frame:124  pts:126976  pts_time:2.64533
lavfi.astats.Overall.RMS_level=-30.341693
frame:125  pts:128000  pts_time:2.66667
lavfi.astats.Overall.RMS_level=-33.783731
frame:126  pts:129024  pts_time:2.688
lavfi.astats.Overall.RMS_level=-33.722573
frame:127  pts:130048  pts_time:2.70933
lavfi.astats.Overall.RMS_level=-33.880097
frame:128  pts:131072  pts_time:2.73067
lavfi.astats.Overall.RMS_level=-27.921674
frame:129  pts:132096  pts_time:2.752
lavfi.astats.Overall.RMS_level=-26.399197
frame:130  pts:133120  pts_time:2.77333
lavfi.astats.Overall.RMS_level=-26.753328
frame:131  pts:134144  pts_time:2.79467
lavfi.astats.Overall.RMS_level=-30.929022
frame:132  pts:135168  pts_time:2.816
lavfi.astats.Overall.RMS_level=-33.248919
frame:133  pts:136192  pts_time:2.83733
lavfi.astats.Overall.RMS_level=-34.204533
frame:134  pts:137216  pts_time:2.85867
lavfi.astats.Overall.RMS_level=-34.680952
frame:135  pts:138240  pts_time:2.88
lavfi.astats.Overall.RMS_level=-34.834037
frame:136  pts:139264  pts_time:2.90133
lavfi.astats.Overall.RMS_level=-31.652231
frame:137  pts:140288  pts_time:2.92267
lavfi.astats.Overall.RMS_level=-27.905579
frame:138  pts:141312  pts_time:2.944
lavfi.astats.Overall.RMS_level=-27.323915
frame:139  pts:142336  pts_time:2.96533
lavfi.astats.Overall.RMS_level=-27.885712
frame:140  pts:143360  pts_time:2.98667
lavfi.astats.Overall.RMS_level=-29.004461
frame:141  pts:144384  pts_time:3.008
lavfi.astats.Overall.RMS_level=-29.495004
frame:142  pts:145408  pts_time:3.02933
lavfi.astats.Overall.RMS_level=-26.395390
frame:143  pts:146432  pts_time:3.05067
lavfi.astats.Overall.RMS_level=-30.420278
frame:144  pts:147456  pts_time:3.072
lavfi.astats.Overall.RMS_level=-40.114173
frame:145  pts:148480  pts_time:3.09333
lavfi.astats.Overall.RMS_level=-46.533174
frame:146  pts:149504  pts_time:3.11467
lavfi.astats.Overall.RMS_level=-49.595276
frame:147  pts:150528  pts_time:3.136
lavfi.astats.Overall.RMS_level=-49.248664
frame:148  pts:151552  pts_time:3.15733
lavfi.astats.Overall.RMS_level=-28.492543
frame:149  pts:152576  pts_time:3.17867
lavfi.astats.Overall.RMS_level=-19.633730
frame:150  pts:153600  pts_time:3.2
lavfi.astats.Overall.RMS_level=-26.332920
frame:151  pts:154624  pts_time:3.22133
lavfi.astats.Overall.RMS_level=-27.763639
frame:152  pts:155648  pts_time:3.24267
lavfi.astats.Overall.RMS_level=-27.657812
frame:153  pts:156672  pts_time:3.264
lavfi.astats.Overall.RMS_level=-28.419769
frame:154  pts:157696  pts_time:3.28533
lavfi.astats.Overall.RMS_level=-29.969050
frame:155  pts:158720  pts_time:3.30667
lavfi.astats.Overall.RMS_level=-31.566162
frame:156  pts:159744  pts_time:3.328
lavfi.astats.Overall.RMS_level=-32.771913
frame:157  pts:160768  pts_time:3.34933
lavfi.astats.Overall.RMS_level=-31.926269
frame:158  pts:161792  pts_time:3.37067
lavfi.astats.Overall.RMS_level=-24.774906
frame:159  pts:162816  pts_time:3.392
lavfi.astats.Overall.RMS_level=-26.285040
frame:160  pts:163840  pts_time:3.41333
lavfi.astats.Overall.RMS_level=-24.223056
frame:161  pts:164864  pts_time:3.43467
lavfi.astats.Overall.RMS_level=-23.219353
frame:162  pts:165888  pts_time:3.456
lavfi.astats.Overall.RMS_level=-22.771347
frame:163  pts:166912  pts_time:3.47733
lavfi.astats.Overall.RMS_level=-23.047284
frame:164  pts:167936  pts_time:3.49867
lavfi.astats.Overall.RMS_level=-23.191332
frame:165  pts:168960  pts_time:3.52
lavfi.astats.Overall.RMS_level=-23.164883
frame:166  pts:169984  pts_time:3.54133
lavfi.astats.Overall.RMS_level=-28.973594
frame:167  pts:171008  pts_time:3.56267
lavfi.astats.Overall.RMS_level=-29.051202
frame:168  pts:172032  pts_time:3.584
lavfi.astats.Overall.RMS_level=-31.033203
frame:169  pts:173056  pts_time:3.60533
lavfi.astats.Overall.RMS_level=-33.883108
frame:170  pts:174080  pts_time:3.62667
lavfi.astats.Overall.RMS_level=-34.916619
frame:171  pts:175104  pts_time:3.648
lavfi.astats.Overall.RMS_level=-38.975384
frame:172  pts:176128  pts_time:3.66933
lavfi.astats.Overall.RMS_level=-40.658112
frame:173  pts:177152  pts_time:3.69067
lavfi.astats.Overall.RMS_level=-37.723996
frame:174  pts:178176  pts_time:3.712
lavfi.astats.Overall.RMS_level=-33.544140
frame:175  pts:179200  pts_time:3.73333
lavfi.astats.Overall.RMS_level=-33.232622
frame:176  pts:180224  pts_time:3.75467
lavfi.astats.Overall.RMS_level=-39.472565
frame:177  pts:181248  pts_time:3.776
lavfi.astats.Overall.RMS_level=-42.302372
frame:178  pts:182272  pts_time:3.79733
lavfi.astats.Overall.RMS_level=-44.324535
frame:179  pts:183296  pts_time:3.81867
lavfi.astats.Overall.RMS_level=-29.246042
frame:180  pts:184320  pts_time:3.84
lavfi.astats.Overall.RMS_level=-22.367450
frame:181  pts:185344  pts_time:3.86133
lavfi.astats.Overall.RMS_level=-21.413117
frame:182  pts:186368  pts_time:3.88267
lavfi.astats.Overall.RMS_level=-24.171536
frame:183  pts:187392  pts_time:3.904
lavfi.astats.Overall.RMS_level=-27.106780
frame:184  pts:188416  pts_time:3.92533
lavfi.astats.Overall.RMS_level=-28.248607
frame:185  pts:189440  pts_time:3.94667
lavfi.astats.Overall.RMS_level=-29.274177
frame:186  pts:190464  pts_time:3.968
lavfi.astats.Overall.RMS_level=-35.661221
frame:187  pts:191488  pts_time:3.98933
lavfi.astats.Overall.RMS_level=-33.061484
frame:188  pts:192512  pts_time:4.01067
lavfi.astats.Overall.RMS_level=-34.311802
frame:189  pts:193536  pts_time:4.032
lavfi.astats.Overall.RMS_level=-34.570622
frame:190  pts:194560  pts_time:4.05333
lavfi.astats.Overall.RMS_level=-36.981305
frame:191  pts:195584  pts_time:4.07467
lavfi.astats.Overall.RMS_level=-40.363690
frame:192  pts:196608  pts_time:4.096
lavfi.astats.Overall.RMS_level=-32.424429
frame:193  pts:197632  pts_time:4.11733
lavfi.astats.Overall.RMS_level=-34.687979
frame:194  pts:198656  pts_time:4.13867
lavfi.astats.Overall.RMS_level=-20.927223
frame:195  pts:199680  pts_time:4.16
lavfi.astats.Overall.RMS_level=-22.644284
frame:196  pts:200704  pts_time:4.18133
lavfi.astats.Overall.RMS_level=-27.330853
frame:197  pts:201728  pts_time:4.20267
lavfi.astats.Overall.RMS_level=-25.791231
frame:198  pts:202752  pts_time:4.224
lavfi.astats.Overall.RMS_level=-28.807633
frame:199  pts:203776  pts_time:4.24533
lavfi.astats.Overall.RMS_level=-29.319573
frame:200  pts:204800  pts_time:4.26667
lavfi.astats.Overall.RMS_level=-29.643433
frame:201  pts:205824  pts_time:4.288
lavfi.astats.Overall.RMS_level=-33.850227
frame:202  pts:206848  pts_time:4.30933
lavfi.astats.Overall.RMS_level=-39.032541
frame:203  pts:207872  pts_time:4.33067
lavfi.astats.Overall.RMS_level=-40.448893
frame:204  pts:208896  pts_time:4.352
lavfi.astats.Overall.RMS_level=-41.500328
frame:205  pts:209920  pts_time:4.37333
lavfi.astats.Overall.RMS_level=-42.432033
frame:206  pts:210944  pts_time:4.39467
lavfi.astats.Overall.RMS_level=-38.923061
frame:207  pts:211968  pts_time:4.416
lavfi.astats.Overall.RMS_level=-34.604203
frame:208  pts:212992  pts_time:4.43733
lavfi.astats.Overall.RMS_level=-23.735514
frame:209  pts:214016  pts_time:4.45867
lavfi.astats.Overall.RMS_level=-17.188693
frame:210  pts:215040  pts_time:4.48
lavfi.astats.Overall.RMS_level=-19.689084
frame:211  pts:216064  pts_time:4.50133
lavfi.astats.Overall.RMS_level=-21.825550
frame:212  pts:217088  pts_time:4.52267
lavfi.astats.Overall.RMS_level=-21.718405
frame:213  pts:218112  pts_time:4.544
lavfi.astats.Overall.RMS_level=-19.482285
frame:214  pts:219136  pts_time:4.56533
lavfi.astats.Overall.RMS_level=-18.461901
frame:215  pts:220160  pts_time:4.58667
lavfi.astats.Overall.RMS_level=-27.066354
frame:216  pts:221184  pts_time:4.608
lavfi.astats.Overall.RMS_level=-31.583451
frame:217  pts:222208  pts_time:4.62933
lavfi.astats.Overall.RMS_level=-33.755697
frame:218  pts:223232  pts_time:4.65067
lavfi.astats.Overall.RMS_level=-33.583012
frame:219  pts:224256  pts_time:4.672
lavfi.astats.Overall.RMS_level=-27.181730
frame:220  pts:225280  pts_time:4.69333
lavfi.astats.Overall.RMS_level=-24.680442
frame:221  pts:226304  pts_time:4.71467
lavfi.astats.Overall.RMS_level=-24.638909
frame:222  pts:227328  pts_time:4.736
lavfi.astats.Overall.RMS_level=-26.180220
frame:223  pts:228352  pts_time:4.75733
lavfi.astats.Overall.RMS_level=-31.217757
frame:224  pts:229376  pts_time:4.77867
lavfi.astats.Overall.RMS_level=-36.096800
frame:225  pts:230400  pts_time:4.8
lavfi.astats.Overall.RMS_level=-33.133249
frame:226  pts:231424  pts_time:4.82133
lavfi.astats.Overall.RMS_level=-34.235097
frame:227  pts:232448  pts_time:4.84267
lavfi.astats.Overall.RMS_level=-33.613728
frame:228  pts:233472  pts_time:4.864
lavfi.astats.Overall.RMS_level=-34.203102
frame:229  pts:234496  pts_time:4.88533
lavfi.astats.Overall.RMS_level=-33.586213
frame:230  pts:235520  pts_time:4.90667
lavfi.astats.Overall.RMS_level=-25.788424
frame:231  pts:236544  pts_time:4.928
lavfi.astats.Overall.RMS_level=-21.173816
frame:232  pts:237568  pts_time:4.94933
lavfi.astats.Overall.RMS_level=-23.278350
frame:233  pts:238592  pts_time:4.97067
lavfi.astats.Overall.RMS_level=-24.792990
frame:234  pts:239616  pts_time:4.992
lavfi.astats.Overall.RMS_level=-24.144683
frame:235  pts:240640  pts_time:5.01333
lavfi.astats.Overall.RMS_level=-21.789376
frame:236  pts:241664  pts_time:5.03467
lavfi.astats.Overall.RMS_level=-19.726631
frame:237  pts:242688  pts_time:5.056
lavfi.astats.Overall.RMS_level=-18.777634
frame:238  pts:243712  pts_time:5.07733
lavfi.astats.Overall.RMS_level=-19.617675
frame:239  pts:244736  pts_time:5.09867
lavfi.astats.Overall.RMS_level=-25.239133
frame:240  pts:245760  pts_time:5.12
lavfi.astats.Overall.RMS_level=-34.302256
frame:241  pts:246784  pts_time:5.14133
lavfi.astats.Overall.RMS_level=-34.655522
frame:242  pts:247808  pts_time:5.16267
lavfi.astats.Overall.RMS_level=-37.933960
frame:243  pts:248832  pts_time:5.184
lavfi.astats.Overall.RMS_level=-41.077821
frame:244  pts:249856  pts_time:5.20533
lavfi.astats.Overall.RMS_level=-46.569437
frame:245  pts:250880  pts_time:5.22667
lavfi.astats.Overall.RMS_level=-46.783333
frame:246  pts:251904  pts_time:5.248
lavfi.astats.Overall.RMS_level=-39.298187
frame:247  pts:252928  pts_time:5.26933
lavfi.astats.Overall.RMS_level=-33.322909
frame:248  pts:253952  pts_time:5.29067
lavfi.astats.Overall.RMS_level=-40.035844
frame:249  pts:254976  pts_time:5.312
lavfi.astats.Overall.RMS_level=-42.922566
frame:250  pts:256000  pts_time:5.33333
lavfi.astats.Overall.RMS_level=-42.634559
frame:251  pts:257024  pts_time:5.35467
lavfi.astats.Overall.RMS_level=-43.617800
frame:252  pts:258048  pts_time:5.376
lavfi.astats.Overall.RMS_level=-55.661261
frame:253  pts:259072  pts_time:5.39733
lavfi.astats.Overall.RMS_level=-58.977440
frame:254  pts:260096  pts_time:5.41867
lavfi.astats.Overall.RMS_level=-55.950455
frame:255  pts:261120  pts_time:5.44
lavfi.astats.Overall.RMS_level=-40.172531
frame:256  pts:262144  pts_time:5.46133
lavfi.astats.Overall.RMS_level=-23.515904
frame:257  pts:263168  pts_time:5.48267
lavfi.astats.Overall.RMS_level=-24.262486
frame:258  pts:264192  pts_time:5.504
lavfi.astats.Overall.RMS_level=-28.007031
frame:259  pts:265216  pts_time:5.52533
lavfi.astats.Overall.RMS_level=-28.088823
frame:260  pts:266240  pts_time:5.54667
lavfi.astats.Overall.RMS_level=-30.043894
frame:261  pts:267264  pts_time:5.568
lavfi.astats.Overall.RMS_level=-30.459125
frame:262  pts:268288  pts_time:5.58933
lavfi.astats.Overall.RMS_level=-25.459603
frame:263  pts:269312  pts_time:5.61067
lavfi.astats.Overall.RMS_level=-22.950313
frame:264  pts:270336  pts_time:5.632
lavfi.astats.Overall.RMS_level=-23.045483
frame:265  pts:271360  pts_time:5.65333
lavfi.astats.Overall.RMS_level=-22.685356
frame:266  pts:272384  pts_time:5.67467
lavfi.astats.Overall.RMS_level=-28.027157
frame:267  pts:273408  pts_time:5.696
lavfi.astats.Overall.RMS_level=-30.076718
frame:268  pts:274432  pts_time:5.71733
lavfi.astats.Overall.RMS_level=-34.682263
frame:269  pts:275456  pts_time:5.73867
lavfi.astats.Overall.RMS_level=-36.799538
frame:270  pts:276480  pts_time:5.76
lavfi.astats.Overall.RMS_level=-35.018304
frame:271  pts:277504  pts_time:5.78133
lavfi.astats.Overall.RMS_level=-40.493936
frame:272  pts:278528  pts_time:5.80267
lavfi.astats.Overall.RMS_level=-49.613683
frame:273  pts:279552  pts_time:5.824
lavfi.astats.Overall.RMS_level=-55.372173
frame:274  pts:280576  pts_time:5.84533
lavfi.astats.Overall.RMS_level=-48.381280
frame:275  pts:281600  pts_time:5.86667
lavfi.astats.Overall.RMS_level=-31.315464
frame:276  pts:282624  pts_time:5.888
lavfi.astats.Overall.RMS_level=-28.097519
frame:277  pts:283648  pts_time:5.90933
lavfi.astats.Overall.RMS_level=-27.139412
frame:278  pts:284672  pts_time:5.93067
lavfi.astats.Overall.RMS_level=-26.301034
frame:279  pts:285696  pts_time:5.952
lavfi.astats.Overall.RMS_level=-25.011489
frame:280  pts:286720  pts_time:5.97333
lavfi.astats.Overall.RMS_level=-31.104207
frame:281  pts:287744  pts_time:5.99467
lavfi.astats.Overall.RMS_level=-39.775453
frame:282  pts:288768  pts_time:6.016
lavfi.astats.Overall.RMS_level=-38.274307
frame:283  pts:289792  pts_time:6.03733
lavfi.astats.Overall.RMS_level=-41.139291
frame:284  pts:290816  pts_time:6.05867
lavfi.astats.Overall.RMS_level=-35.878992
frame:285  pts:291840  pts_time:6.08
lavfi.astats.Overall.RMS_level=-30.179650
frame:286  pts:292864  pts_time:6.10133
lavfi.astats.Overall.RMS_level=-27.895275
frame:287  pts:293888  pts_time:6.12267
lavfi.astats.Overall.RMS_level=-27.759142
frame:288  pts:294912  pts_time:6.144
lavfi.astats.Overall.RMS_level=-34.012891
frame:289  pts:295936  pts_time:6.16533
lavfi.astats.Overall.RMS_level=-33.112105
frame:290  pts:296960  pts_time:6.18667
lavfi.astats.Overall.RMS_level=-28.530029
frame:291  pts:297984  pts_time:6.208
lavfi.astats.Overall.RMS_level=-26.736256
frame:292  pts:299008  pts_time:6.22933
lavfi.astats.Overall.RMS_level=-27.587389
frame:293  pts:300032  pts_time:6.25067
lavfi.astats.Overall.RMS_level=-27.526366
frame:294  pts:301056  pts_time:6.272
lavfi.astats.Overall.RMS_level=-30.271438
frame:295  pts:302080  pts_time:6.29333
lavfi.astats.Overall.RMS_level=-30.372927
frame:296  pts:303104  pts_time:6.31467
lavfi.astats.Overall.RMS_level=-27.191041
frame:297  pts:304128  pts_time:6.336
lavfi.astats.Overall.RMS_level=-26.561079
frame:298  pts:305152  pts_time:6.35733
lavfi.astats.Overall.RMS_level=-25.285502
frame:299  pts:306176  pts_time:6.37867
lavfi.astats.Overall.RMS_level=-24.095906
frame:300  pts:307200  pts_time:6.4
lavfi.astats.Overall.RMS_level=-27.004334
frame:301  pts:308224  pts_time:6.42133
lavfi.astats.Overall.RMS_level=-28.024481
frame:302  pts:309248  pts_time:6.44267
lavfi.astats.Overall.RMS_level=-30.601548
frame:303  pts:310272  pts_time:6.464
lavfi.astats.Overall.RMS_level=-31.002306
frame:304  pts:311296  pts_time:6.48533
lavfi.astats.Overall.RMS_level=-27.136106
frame:305  pts:312320  pts_time:6.50667
lavfi.astats.Overall.RMS_level=-22.023625
frame:306  pts:313344  pts_time:6.528
lavfi.astats.Overall.RMS_level=-19.291171
frame:307  pts:314368  pts_time:6.54933
lavfi.astats.Overall.RMS_level=-26.413064
frame:308  pts:315392  pts_time:6.57067
lavfi.astats.Overall.RMS_level=-26.648399
frame:309  pts:316416  pts_time:6.592
lavfi.astats.Overall.RMS_level=-28.251900
frame:310  pts:317440  pts_time:6.61333
lavfi.astats.Overall.RMS_level=-29.026899
frame:311  pts:318464  pts_time:6.63467
lavfi.astats.Overall.RMS_level=-36.602062
frame:312  pts:319488  pts_time:6.656
lavfi.astats.Overall.RMS_level=-37.568851
frame:313  pts:320512  pts_time:6.67733
lavfi.astats.Overall.RMS_level=-41.867689
frame:314  pts:321536  pts_time:6.69867
lavfi.astats.Overall.RMS_level=-42.759389
frame:315  pts:322560  pts_time:6.72
lavfi.astats.Overall.RMS_level=-47.089166
frame:316  pts:323584  pts_time:6.74133
lavfi.astats.Overall.RMS_level=-39.144469
frame:317  pts:324608  pts_time:6.76267
lavfi.astats.Overall.RMS_level=-30.130664
frame:318  pts:325632  pts_time:6.784
lavfi.astats.Overall.RMS_level=-29.075465
frame:319  pts:326656  pts_time:6.80533
lavfi.astats.Overall.RMS_level=-30.642049
frame:320  pts:327680  pts_time:6.82667
lavfi.astats.Overall.RMS_level=-35.895709
frame:321  pts:328704  pts_time:6.848
lavfi.astats.Overall.RMS_level=-41.809959
frame:322  pts:329728  pts_time:6.86933
lavfi.astats.Overall.RMS_level=-47.261121
frame:323  pts:330752  pts_time:6.89067
lavfi.astats.Overall.RMS_level=-47.009461
frame:324  pts:331776  pts_time:6.912
lavfi.astats.Overall.RMS_level=-43.161812
frame:325  pts:332800  pts_time:6.93333
lavfi.astats.Overall.RMS_level=-43.589438
frame:326  pts:333824  pts_time:6.95467
lavfi.astats.Overall.RMS_level=-43.655230
frame:327  pts:334848  pts_time:6.976
lavfi.astats.Overall.RMS_level=-44.453230
frame:328  pts:335872  pts_time:6.99733
lavfi.astats.Overall.RMS_level=-44.239512
frame:329  pts:336896  pts_time:7.01867
lavfi.astats.Overall.RMS_level=-44.013133
frame:330  pts:337920  pts_time:7.04
lavfi.astats.Overall.RMS_level=-44.766918
frame:331  pts:338944  pts_time:7.06133
lavfi.astats.Overall.RMS_level=-45.517439
frame:332  pts:339968  pts_time:7.08267
lavfi.astats.Overall.RMS_level=-45.388873
frame:333  pts:340992  pts_time:7.104
lavfi.astats.Overall.RMS_level=-49.321596
frame:334  pts:342016  pts_time:7.12533
lavfi.astats.Overall.RMS_level=-48.724056
frame:335  pts:343040  pts_time:7.14667
lavfi.astats.Overall.RMS_level=-62.879897
frame:336  pts:344064  pts_time:7.168
lavfi.astats.Overall.RMS_level=-80.230895
frame:337  pts:345088  pts_time:7.18933
lavfi.astats.Overall.RMS_level=-81.678650
frame:338  pts:346112  pts_time:7.21067
lavfi.astats.Overall.RMS_level=-75.518762
frame:339  pts:347136  pts_time:7.232
lavfi.astats.Overall.RMS_level=-78.443119
frame:340  pts:348160  pts_time:7.25333
lavfi.astats.Overall.RMS_level=-56.758264
frame:341  pts:349184  pts_time:7.27467
lavfi.astats.Overall.RMS_level=-57.937985
frame:342  pts:350208  pts_time:7.296
lavfi.astats.Overall.RMS_level=-82.679031
frame:343  pts:351232  pts_time:7.31733
lavfi.astats.Overall.RMS_level=-86.222214
frame:344  pts:352256  pts_time:7.33867
lavfi.astats.Overall.RMS_level=-76.668730
frame:345  pts:353280  pts_time:7.36
lavfi.astats.Overall.RMS_level=-78.158672
frame:346  pts:354304  pts_time:7.38133
lavfi.astats.Overall.RMS_level=-91.087393
frame:347  pts:355328  pts_time:7.40267
lavfi.astats.Overall.RMS_level=-92.074852
frame:348  pts:356352  pts_time:7.424
lavfi.astats.Overall.RMS_level=-84.087291
frame:349  pts:357376  pts_time:7.44533
lavfi.astats.Overall.RMS_level=-71.742415
frame:350  pts:358400  pts_time:7.46667
lavfi.astats.Overall.RMS_level=-63.838773
frame:351  pts:359424  pts_time:7.488
lavfi.astats.Overall.RMS_level=-64.036306
frame:352  pts:360448  pts_time:7.50933
lavfi.astats.Overall.RMS_level=-54.365367
frame:353  pts:361472  pts_time:7.53067
lavfi.astats.Overall.RMS_level=-59.101135
frame:354  pts:362496  pts_time:7.552
lavfi.astats.Overall.RMS_level=-62.616261
frame:355  pts:363520  pts_time:7.57333
lavfi.astats.Overall.RMS_level=-74.123277
frame:356  pts:364544  pts_time:7.59467
lavfi.astats.Overall.RMS_level=-84.634370
frame:357  pts:365568  pts_time:7.616
lavfi.astats.Overall.RMS_level=-90.077546
frame:358  pts:366592  pts_time:7.63733
lavfi.astats.Overall.RMS_level=-92.329948
frame:359  pts:367616  pts_time:7.65867
lavfi.astats.Overall.RMS_level=-92.723530
frame:360  pts:368640  pts_time:7.68
lavfi.astats.Overall.RMS_level=-94.883170
frame:361  pts:369664  pts_time:7.70133
lavfi.astats.Overall.RMS_level=-94.273953
frame:362  pts:370688  pts_time:7.72267
lavfi.astats.Overall.RMS_level=-93.842983
frame:363  pts:371712  pts_time:7.744
lavfi.astats.Overall.RMS_level=-93.163812
frame:364  pts:372736  pts_time:7.76533
lavfi.astats.Overall.RMS_level=-94.648713
frame:365  pts:373760  pts_time:7.78667
lavfi.astats.Overall.RMS_level=-93.560393
frame:366  pts:374784  pts_time:7.808
lavfi.astats.Overall.RMS_level=-89.288142
frame:367  pts:375808  pts_time:7.82933
lavfi.astats.Overall.RMS_level=-81.322068
frame:368  pts:376832  pts_time:7.85067
lavfi.astats.Overall.RMS_level=-91.008817
frame:369  pts:377856  pts_time:7.872
lavfi.astats.Overall.RMS_level=-89.595377
frame:370  pts:378880  pts_time:7.89333
lavfi.astats.Overall.RMS_level=-72.133355
frame:371  pts:379904  pts_time:7.91467
lavfi.astats.Overall.RMS_level=-53.294368
frame:372  pts:380928  pts_time:7.936
lavfi.astats.Overall.RMS_level=-40.567538
frame:373  pts:381952  pts_time:7.95733
lavfi.astats.Overall.RMS_level=-43.135687
frame:374  pts:382976  pts_time:7.97867
lavfi.astats.Overall.RMS_level=-41.865903
frame:375  pts:384000  pts_time:8
lavfi.astats.Overall.RMS_level=-36.597730
frame:376  pts:385024  pts_time:8.02133
lavfi.astats.Overall.RMS_level=-45.655612
frame:377  pts:386048  pts_time:8.04267
lavfi.astats.Overall.RMS_level=-48.308095
frame:378  pts:387072  pts_time:8.064
lavfi.astats.Overall.RMS_level=-48.809725
frame:379  pts:388096  pts_time:8.08533
lavfi.astats.Overall.RMS_level=-43.363111
frame:380  pts:389120  pts_time:8.10667
lavfi.astats.Overall.RMS_level=-37.046349
frame:381  pts:390144  pts_time:8.128
lavfi.astats.Overall.RMS_level=-34.837814
frame:382  pts:391168  pts_time:8.14933
lavfi.astats.Overall.RMS_level=-36.582835
frame:383  pts:392192  pts_time:8.17067
lavfi.astats.Overall.RMS_level=-37.796048
frame:384  pts:393216  pts_time:8.192
lavfi.astats.Overall.RMS_level=-49.748723
frame:385  pts:394240  pts_time:8.21333
lavfi.astats.Overall.RMS_level=-48.078405
frame:386  pts:395264  pts_time:8.23467
lavfi.astats.Overall.RMS_level=-67.251093
frame:387  pts:396288  pts_time:8.256
lavfi.astats.Overall.RMS_level=-82.272508
frame:388  pts:397312  pts_time:8.27733
lavfi.astats.Overall.RMS_level=-83.200436
frame:389  pts:398336  pts_time:8.29867
lavfi.astats.Overall.RMS_level=-82.411628
frame:390  pts:399360  pts_time:8.32
lavfi.astats.Overall.RMS_level=-84.303173
frame:391  pts:400384  pts_time:8.34133
lavfi.astats.Overall.RMS_level=-85.937334
frame:392  pts:401408  pts_time:8.36267
lavfi.astats.Overall.RMS_level=-82.954862
frame:393  pts:402432  pts_time:8.384
lavfi.astats.Overall.RMS_level=-84.021857
frame:394  pts:403456  pts_time:8.40533
lavfi.astats.Overall.RMS_level=-36.602513
frame:395  pts:404480  pts_time:8.42667
lavfi.astats.Overall.RMS_level=-24.819009
frame:396  pts:405504  pts_time:8.448
lavfi.astats.Overall.RMS_level=-16.861317
frame:397  pts:406528  pts_time:8.46933
lavfi.astats.Overall.RMS_level=-12.990680
frame:398  pts:407552  pts_time:8.49067
lavfi.astats.Overall.RMS_level=-17.892285
frame:399  pts:408576  pts_time:8.512
lavfi.astats.Overall.RMS_level=-18.383846
frame:400  pts:409600  pts_time:8.53333
lavfi.astats.Overall.RMS_level=-17.980376
frame:401  pts:410624  pts_time:8.55467
lavfi.astats.Overall.RMS_level=-17.375319
frame:402  pts:411648  pts_time:8.576
lavfi.astats.Overall.RMS_level=-26.211261
frame:403  pts:412672  pts_time:8.59733
lavfi.astats.Overall.RMS_level=-34.963568
frame:404  pts:413696  pts_time:8.61867
lavfi.astats.Overall.RMS_level=-33.311188
frame:405  pts:414720  pts_time:8.64
lavfi.astats.Overall.RMS_level=-37.768020
frame:406  pts:415744  pts_time:8.66133
lavfi.astats.Overall.RMS_level=-33.811983
frame:407  pts:416768  pts_time:8.68267
lavfi.astats.Overall.RMS_level=-36.472682
frame:408  pts:417792  pts_time:8.704
lavfi.astats.Overall.RMS_level=-38.734189
frame:409  pts:418816  pts_time:8.72533
lavfi.astats.Overall.RMS_level=-36.758447
frame:410  pts:419840  pts_time:8.74667
lavfi.astats.Overall.RMS_level=-34.397507
frame:411  pts:420864  pts_time:8.768
lavfi.astats.Overall.RMS_level=-33.570201
frame:412  pts:421888  pts_time:8.78933
lavfi.astats.Overall.RMS_level=-34.831475
frame:413  pts:422912  pts_time:8.81067
lavfi.astats.Overall.RMS_level=-33.951134
frame:414  pts:423936  pts_time:8.832
lavfi.astats.Overall.RMS_level=-31.697970
frame:415  pts:424960  pts_time:8.85333
lavfi.astats.Overall.RMS_level=-28.927270
frame:416  pts:425984  pts_time:8.87467
lavfi.astats.Overall.RMS_level=-26.693896
frame:417  pts:427008  pts_time:8.896
lavfi.astats.Overall.RMS_level=-25.127519
frame:418  pts:428032  pts_time:8.91733
lavfi.astats.Overall.RMS_level=-24.417028
frame:419  pts:429056  pts_time:8.93867
lavfi.astats.Overall.RMS_level=-24.576734
frame:420  pts:430080  pts_time:8.96
lavfi.astats.Overall.RMS_level=-28.051743
frame:421  pts:431104  pts_time:8.98133
lavfi.astats.Overall.RMS_level=-29.554093
frame:422  pts:432128  pts_time:9.00267
lavfi.astats.Overall.RMS_level=-30.598588
frame:423  pts:433152  pts_time:9.024
lavfi.astats.Overall.RMS_level=-34.918537
frame:424  pts:434176  pts_time:9.04533
lavfi.astats.Overall.RMS_level=-39.758780
frame:425  pts:435200  pts_time:9.06667
lavfi.astats.Overall.RMS_level=-44.076836
frame:426  pts:436224  pts_time:9.088
lavfi.astats.Overall.RMS_level=-46.435567
frame:427  pts:437248  pts_time:9.10933
lavfi.astats.Overall.RMS_level=-45.614230
frame:428  pts:438272  pts_time:9.13067
lavfi.astats.Overall.RMS_level=-34.086774
frame:429  pts:439296  pts_time:9.152
lavfi.astats.Overall.RMS_level=-30.837521
frame:430  pts:440320  pts_time:9.17333
lavfi.astats.Overall.RMS_level=-29.513750
frame:431  pts:441344  pts_time:9.19467
lavfi.astats.Overall.RMS_level=-31.706648
frame:432  pts:442368  pts_time:9.216
lavfi.astats.Overall.RMS_level=-33.861896
frame:433  pts:443392  pts_time:9.23733
lavfi.astats.Overall.RMS_level=-38.954353
frame:434  pts:444416  pts_time:9.25867
lavfi.astats.Overall.RMS_level=-45.682257
frame:435  pts:445440  pts_time:9.28
lavfi.astats.Overall.RMS_level=-47.813762
frame:436  pts:446464  pts_time:9.30133
lavfi.astats.Overall.RMS_level=-48.440540
frame:437  pts:447488  pts_time:9.32267
lavfi.astats.Overall.RMS_level=-52.146068
frame:438  pts:448512  pts_time:9.344
lavfi.astats.Overall.RMS_level=-55.882214
frame:439  pts:449536  pts_time:9.36533
lavfi.astats.Overall.RMS_level=-55.770568
frame:440  pts:450560  pts_time:9.38667
lavfi.astats.Overall.RMS_level=-52.583706
frame:441  pts:451584  pts_time:9.408
lavfi.astats.Overall.RMS_level=-51.597081
frame:442  pts:452608  pts_time:9.42933
lavfi.astats.Overall.RMS_level=-59.084107
frame:443  pts:453632  pts_time:9.45067
lavfi.astats.Overall.RMS_level=-55.793235
frame:444  pts:454656  pts_time:9.472
lavfi.astats.Overall.RMS_level=-56.792551
frame:445  pts:455680  pts_time:9.49333
lavfi.astats.Overall.RMS_level=-36.448468
frame:446  pts:456704  pts_time:9.51467
lavfi.astats.Overall.RMS_level=-27.107528
frame:447  pts:457728  pts_time:9.536
lavfi.astats.Overall.RMS_level=-25.490199
frame:448  pts:458752  pts_time:9.55733
lavfi.astats.Overall.RMS_level=-24.673206
frame:449  pts:459776  pts_time:9.57867
lavfi.astats.Overall.RMS_level=-27.739639
frame:450  pts:460800  pts_time:9.6
lavfi.astats.Overall.RMS_level=-31.716144
frame:451  pts:461824  pts_time:9.62133
lavfi.astats.Overall.RMS_level=-33.911505
frame:452  pts:462848  pts_time:9.64267
lavfi.astats.Overall.RMS_level=-35.055797
frame:453  pts:463872  pts_time:9.664
lavfi.astats.Overall.RMS_level=-29.922536
frame:454  pts:464896  pts_time:9.68533
lavfi.astats.Overall.RMS_level=-23.381378
frame:455  pts:465920  pts_time:9.70667
lavfi.astats.Overall.RMS_level=-21.442153
frame:456  pts:466944  pts_time:9.728
lavfi.astats.Overall.RMS_level=-21.531824
frame:457  pts:467968  pts_time:9.74933
lavfi.astats.Overall.RMS_level=-21.930401
frame:458  pts:468992  pts_time:9.77067
lavfi.astats.Overall.RMS_level=-23.592958
frame:459  pts:470016  pts_time:9.792
lavfi.astats.Overall.RMS_level=-30.204114
frame:460  pts:471040  pts_time:9.81333
lavfi.astats.Overall.RMS_level=-32.242095
frame:461  pts:472064  pts_time:9.83467
lavfi.astats.Overall.RMS_level=-33.448955
frame:462  pts:473088  pts_time:9.856
lavfi.astats.Overall.RMS_level=-34.422547
frame:463  pts:474112  pts_time:9.87733
lavfi.astats.Overall.RMS_level=-34.042873
frame:464  pts:475136  pts_time:9.89867
lavfi.astats.Overall.RMS_level=-31.510229
frame:465  pts:476160  pts_time:9.92
lavfi.astats.Overall.RMS_level=-33.763527
frame:466  pts:477184  pts_time:9.94133
lavfi.astats.Overall.RMS_level=-26.239248
frame:467  pts:478208  pts_time:9.96267
lavfi.astats.Overall.RMS_level=-26.114812
frame:468  pts:479232  pts_time:9.984
lavfi.astats.Overall.RMS_level=-18.235985
frame:469  pts:480256  pts_time:10.0053
lavfi.astats.Overall.RMS_level=-19.589713
frame:470  pts:481280  pts_time:10.0267
lavfi.astats.Overall.RMS_level=-18.816047
frame:471  pts:482304  pts_time:10.048
lavfi.astats.Overall.RMS_level=-18.016417
frame:472  pts:483328  pts_time:10.0693
lavfi.astats.Overall.RMS_level=-18.899409
frame:473  pts:484352  pts_time:10.0907
lavfi.astats.Overall.RMS_level=-20.723679
frame:474  pts:485376  pts_time:10.112
lavfi.astats.Overall.RMS_level=-25.763204
frame:475  pts:486400  pts_time:10.1333
lavfi.astats.Overall.RMS_level=-28.337173
frame:476  pts:487424  pts_time:10.1547
lavfi.astats.Overall.RMS_level=-35.766702
frame:477  pts:488448  pts_time:10.176
lavfi.astats.Overall.RMS_level=-39.835299
frame:478  pts:489472  pts_time:10.1973
lavfi.astats.Overall.RMS_level=-37.951112
frame:479  pts:490496  pts_time:10.2187
lavfi.astats.Overall.RMS_level=-45.126996
frame:480  pts:491520  pts_time:10.24
lavfi.astats.Overall.RMS_level=-43.416676
frame:481  pts:492544  pts_time:10.2613
lavfi.astats.Overall.RMS_level=-43.533004
frame:482  pts:493568  pts_time:10.2827
lavfi.astats.Overall.RMS_level=-43.247710
frame:483  pts:494592  pts_time:10.304
lavfi.astats.Overall.RMS_level=-42.916990
frame:484  pts:495616  pts_time:10.3253
lavfi.astats.Overall.RMS_level=-42.408563
frame:485  pts:496640  pts_time:10.3467
lavfi.astats.Overall.RMS_level=-35.975439
frame:486  pts:497664  pts_time:10.368
lavfi.astats.Overall.RMS_level=-29.848828
frame:487  pts:498688  pts_time:10.3893
lavfi.astats.Overall.RMS_level=-26.206576
frame:488  pts:499712  pts_time:10.4107
lavfi.astats.Overall.RMS_level=-21.719094
frame:489  pts:500736  pts_time:10.432
lavfi.astats.Overall.RMS_level=-24.278610
frame:490  pts:501760  pts_time:10.4533
lavfi.astats.Overall.RMS_level=-28.338122
frame:491  pts:502784  pts_time:10.4747
lavfi.astats.Overall.RMS_level=-27.610472
frame:492  pts:503808  pts_time:10.496
lavfi.astats.Overall.RMS_level=-34.407008
frame:493  pts:504832  pts_time:10.5173
lavfi.astats.Overall.RMS_level=-41.127317
frame:494  pts:505856  pts_time:10.5387
lavfi.astats.Overall.RMS_level=-42.690813
frame:495  pts:506880  pts_time:10.56
lavfi.astats.Overall.RMS_level=-44.250924
frame:496  pts:507904  pts_time:10.5813
lavfi.astats.Overall.RMS_level=-45.557528
frame:497  pts:508928  pts_time:10.6027
lavfi.astats.Overall.RMS_level=-43.091292
frame:498  pts:509952  pts_time:10.624
lavfi.astats.Overall.RMS_level=-41.271585
frame:499  pts:510976  pts_time:10.6453
lavfi.astats.Overall.RMS_level=-39.853366
frame:500  pts:512000  pts_time:10.6667
lavfi.astats.Overall.RMS_level=-36.887777
frame:501  pts:513024  pts_time:10.688
lavfi.astats.Overall.RMS_level=-35.518739
frame:502  pts:514048  pts_time:10.7093
lavfi.astats.Overall.RMS_level=-40.210066
frame:503  pts:515072  pts_time:10.7307
lavfi.astats.Overall.RMS_level=-45.331954
frame:504  pts:516096  pts_time:10.752
lavfi.astats.Overall.RMS_level=-44.804262
frame:505  pts:517120  pts_time:10.7733
lavfi.astats.Overall.RMS_level=-45.887941
frame:506  pts:518144  pts_time:10.7947
lavfi.astats.Overall.RMS_level=-44.024607
frame:507  pts:519168  pts_time:10.816
lavfi.astats.Overall.RMS_level=-32.466357
frame:508  pts:520192  pts_time:10.8373
lavfi.astats.Overall.RMS_level=-25.662577
frame:509  pts:521216  pts_time:10.8587
lavfi.astats.Overall.RMS_level=-23.329686
frame:510  pts:522240  pts_time:10.88
lavfi.astats.Overall.RMS_level=-24.631871
frame:511  pts:523264  pts_time:10.9013
lavfi.astats.Overall.RMS_level=-23.720993
frame:512  pts:524288  pts_time:10.9227
lavfi.astats.Overall.RMS_level=-26.036034
frame:513  pts:525312  pts_time:10.944
lavfi.astats.Overall.RMS_level=-31.649479
frame:514  pts:526336  pts_time:10.9653
lavfi.astats.Overall.RMS_level=-23.253702
frame:515  pts:527360  pts_time:10.9867
lavfi.astats.Overall.RMS_level=-19.996013
frame:516  pts:528384  pts_time:11.008
lavfi.astats.Overall.RMS_level=-22.113513
frame:517  pts:529408  pts_time:11.0293
lavfi.astats.Overall.RMS_level=-24.378160
frame:518  pts:530432  pts_time:11.0507
lavfi.astats.Overall.RMS_level=-25.056813
frame:519  pts:531456  pts_time:11.072
lavfi.astats.Overall.RMS_level=-27.264009
frame:520  pts:532480  pts_time:11.0933
lavfi.astats.Overall.RMS_level=-30.916897
frame:521  pts:533504  pts_time:11.1147
lavfi.astats.Overall.RMS_level=-33.620694
frame:522  pts:534528  pts_time:11.136
lavfi.astats.Overall.RMS_level=-39.724169
frame:523  pts:535552  pts_time:11.1573
lavfi.astats.Overall.RMS_level=-49.427818
frame:524  pts:536576  pts_time:11.1787
lavfi.astats.Overall.RMS_level=-56.541843
frame:525  pts:537600  pts_time:11.2
lavfi.astats.Overall.RMS_level=-61.601874
frame:526  pts:538624  pts_time:11.2213
lavfi.astats.Overall.RMS_level=-49.115447
frame:527  pts:539648  pts_time:11.2427
lavfi.astats.Overall.RMS_level=-41.948911
frame:528  pts:540672  pts_time:11.264
lavfi.astats.Overall.RMS_level=-39.629790
frame:529  pts:541696  pts_time:11.2853
lavfi.astats.Overall.RMS_level=-37.047582
frame:530  pts:542720  pts_time:11.3067
lavfi.astats.Overall.RMS_level=-35.566897
frame:531  pts:543744  pts_time:11.328
lavfi.astats.Overall.RMS_level=-34.140955
frame:532  pts:544768  pts_time:11.3493
lavfi.astats.Overall.RMS_level=-33.448463
frame:533  pts:545792  pts_time:11.3707
lavfi.astats.Overall.RMS_level=-31.967359
frame:534  pts:546816  pts_time:11.392
lavfi.astats.Overall.RMS_level=-31.392060
frame:535  pts:547840  pts_time:11.4133
lavfi.astats.Overall.RMS_level=-33.673530
frame:536  pts:548864  pts_time:11.4347
lavfi.astats.Overall.RMS_level=-32.437518
frame:537  pts:549888  pts_time:11.456
lavfi.astats.Overall.RMS_level=-33.211651
frame:538  pts:550912  pts_time:11.4773
lavfi.astats.Overall.RMS_level=-33.250298
frame:539  pts:551936  pts_time:11.4987
lavfi.astats.Overall.RMS_level=-36.738337
frame:540  pts:552960  pts_time:11.52
lavfi.astats.Overall.RMS_level=-38.311200
frame:541  pts:553984  pts_time:11.5413
lavfi.astats.Overall.RMS_level=-43.334426
frame:542  pts:555008  pts_time:11.5627
lavfi.astats.Overall.RMS_level=-47.766745
frame:543  pts:556032  pts_time:11.584
lavfi.astats.Overall.RMS_level=-53.030059
frame:544  pts:557056  pts_time:11.6053
lavfi.astats.Overall.RMS_level=-46.836775
frame:545  pts:558080  pts_time:11.6267
lavfi.astats.Overall.RMS_level=-53.598365
frame:546  pts:559104  pts_time:11.648
lavfi.astats.Overall.RMS_level=-54.436354
frame:547  pts:560128  pts_time:11.6693
lavfi.astats.Overall.RMS_level=-72.668103
frame:548  pts:561152  pts_time:11.6907
lavfi.astats.Overall.RMS_level=-82.658522
frame:549  pts:562176  pts_time:11.712
lavfi.astats.Overall.RMS_level=-79.395775
frame:550  pts:563200  pts_time:11.7333
lavfi.astats.Overall.RMS_level=-80.555870
frame:551  pts:564224  pts_time:11.7547
lavfi.astats.Overall.RMS_level=-80.429943
frame:552  pts:565248  pts_time:11.776
lavfi.astats.Overall.RMS_level=-73.900502
frame:553  pts:566272  pts_time:11.7973
lavfi.astats.Overall.RMS_level=-78.137645
frame:554  pts:567296  pts_time:11.8187
lavfi.astats.Overall.RMS_level=-87.996663
frame:555  pts:568320  pts_time:11.84
lavfi.astats.Overall.RMS_level=-61.309264
frame:556  pts:569344  pts_time:11.8613
lavfi.astats.Overall.RMS_level=-44.292795
frame:557  pts:570368  pts_time:11.8827
lavfi.astats.Overall.RMS_level=-33.037837
frame:558  pts:571392  pts_time:11.904
lavfi.astats.Overall.RMS_level=-30.080232
frame:559  pts:572416  pts_time:11.9253
lavfi.astats.Overall.RMS_level=-29.091413
frame:560  pts:573440  pts_time:11.9467
lavfi.astats.Overall.RMS_level=-23.108768
frame:561  pts:574464  pts_time:11.968
lavfi.astats.Overall.RMS_level=-21.987808
frame:562  pts:575488  pts_time:11.9893
lavfi.astats.Overall.RMS_level=-19.227206
frame:563  pts:576512  pts_time:12.0107
lavfi.astats.Overall.RMS_level=-18.944577
frame:564  pts:577536  pts_time:12.032
lavfi.astats.Overall.RMS_level=-21.034673
frame:565  pts:578560  pts_time:12.0533
lavfi.astats.Overall.RMS_level=-22.491514
frame:566  pts:579584  pts_time:12.0747
lavfi.astats.Overall.RMS_level=-22.724447
frame:567  pts:580608  pts_time:12.096
lavfi.astats.Overall.RMS_level=-25.463226
frame:568  pts:581632  pts_time:12.1173
lavfi.astats.Overall.RMS_level=-24.782612
frame:569  pts:582656  pts_time:12.1387
lavfi.astats.Overall.RMS_level=-28.968991
frame:570  pts:583680  pts_time:12.16
lavfi.astats.Overall.RMS_level=-33.649092
frame:571  pts:584704  pts_time:12.1813
lavfi.astats.Overall.RMS_level=-34.377030
frame:572  pts:585728  pts_time:12.2027
lavfi.astats.Overall.RMS_level=-31.374961
frame:573  pts:586752  pts_time:12.224
lavfi.astats.Overall.RMS_level=-39.695929
frame:574  pts:587776  pts_time:12.2453
lavfi.astats.Overall.RMS_level=-40.097593
frame:575  pts:588800  pts_time:12.2667
lavfi.astats.Overall.RMS_level=-38.959629
frame:576  pts:589824  pts_time:12.288
lavfi.astats.Overall.RMS_level=-42.524680
frame:577  pts:590848  pts_time:12.3093
lavfi.astats.Overall.RMS_level=-44.826906
frame:578  pts:591872  pts_time:12.3307
lavfi.astats.Overall.RMS_level=-42.479850
frame:579  pts:592896  pts_time:12.352
lavfi.astats.Overall.RMS_level=-37.598317
frame:580  pts:593920  pts_time:12.3733
lavfi.astats.Overall.RMS_level=-32.517760
frame:581  pts:594944  pts_time:12.3947
lavfi.astats.Overall.RMS_level=-31.510663
frame:582  pts:595968  pts_time:12.416
lavfi.astats.Overall.RMS_level=-33.205178
frame:583  pts:596992  pts_time:12.4373
lavfi.astats.Overall.RMS_level=-33.103407
frame:584  pts:598016  pts_time:12.4587
lavfi.astats.Overall.RMS_level=-34.160607
frame:585  pts:599040  pts_time:12.48
lavfi.astats.Overall.RMS_level=-34.943655
frame:586  pts:600064  pts_time:12.5013
lavfi.astats.Overall.RMS_level=-34.826953
frame:587  pts:601088  pts_time:12.5227
lavfi.astats.Overall.RMS_level=-34.944428
frame:588  pts:602112  pts_time:12.544
lavfi.astats.Overall.RMS_level=-37.182188
frame:589  pts:603136  pts_time:12.5653
lavfi.astats.Overall.RMS_level=-40.113675
frame:590  pts:604160  pts_time:12.5867
lavfi.astats.Overall.RMS_level=-41.866493
frame:591  pts:605184  pts_time:12.608
lavfi.astats.Overall.RMS_level=-40.169487
frame:592  pts:606208  pts_time:12.6293
lavfi.astats.Overall.RMS_level=-36.615007
frame:593  pts:607232  pts_time:12.6507
lavfi.astats.Overall.RMS_level=-32.229308
frame:594  pts:608256  pts_time:12.672
lavfi.astats.Overall.RMS_level=-30.290722
frame:595  pts:609280  pts_time:12.6933
lavfi.astats.Overall.RMS_level=-29.906434
frame:596  pts:610304  pts_time:12.7147
lavfi.astats.Overall.RMS_level=-29.916095
frame:597  pts:611328  pts_time:12.736
lavfi.astats.Overall.RMS_level=-33.119501
frame:598  pts:612352  pts_time:12.7573
lavfi.astats.Overall.RMS_level=-33.311236
frame:599  pts:613376  pts_time:12.7787
lavfi.astats.Overall.RMS_level=-38.961349
frame:600  pts:614400  pts_time:12.8
lavfi.astats.Overall.RMS_level=-35.692239
frame:601  pts:615424  pts_time:12.8213
lavfi.astats.Overall.RMS_level=-30.993138
frame:602  pts:616448  pts_time:12.8427
lavfi.astats.Overall.RMS_level=-25.739004
frame:603  pts:617472  pts_time:12.864
lavfi.astats.Overall.RMS_level=-21.534190
frame:604  pts:618496  pts_time:12.8853
lavfi.astats.Overall.RMS_level=-21.771826
frame:605  pts:619520  pts_time:12.9067
lavfi.astats.Overall.RMS_level=-20.464265
frame:606  pts:620544  pts_time:12.928
lavfi.astats.Overall.RMS_level=-20.596231
frame:607  pts:621568  pts_time:12.9493
lavfi.astats.Overall.RMS_level=-24.659690
frame:608  pts:622592  pts_time:12.9707
lavfi.astats.Overall.RMS_level=-20.721915
frame:609  pts:623616  pts_time:12.992
lavfi.astats.Overall.RMS_level=-23.876345
frame:610  pts:624640  pts_time:13.0133
lavfi.astats.Overall.RMS_level=-25.134527
frame:611  pts:625664  pts_time:13.0347
lavfi.astats.Overall.RMS_level=-31.894418
frame:612  pts:626688  pts_time:13.056
lavfi.astats.Overall.RMS_level=-34.954478
frame:613  pts:627712  pts_time:13.0773
lavfi.astats.Overall.RMS_level=-39.587711
frame:614  pts:628736  pts_time:13.0987
lavfi.astats.Overall.RMS_level=-41.585747
frame:615  pts:629760  pts_time:13.12
lavfi.astats.Overall.RMS_level=-45.077311
frame:616  pts:630784  pts_time:13.1413
lavfi.astats.Overall.RMS_level=-46.863708
frame:617  pts:631808  pts_time:13.1627
lavfi.astats.Overall.RMS_level=-44.439684
frame:618  pts:632832  pts_time:13.184
lavfi.astats.Overall.RMS_level=-38.658344
frame:619  pts:633856  pts_time:13.2053
lavfi.astats.Overall.RMS_level=-31.765384
frame:620  pts:634880  pts_time:13.2267
lavfi.astats.Overall.RMS_level=-31.820599
frame:621  pts:635904  pts_time:13.248
lavfi.astats.Overall.RMS_level=-39.905937
frame:622  pts:636928  pts_time:13.2693
lavfi.astats.Overall.RMS_level=-40.141521
frame:623  pts:637952  pts_time:13.2907
lavfi.astats.Overall.RMS_level=-30.581576
frame:624  pts:638976  pts_time:13.312
lavfi.astats.Overall.RMS_level=-26.917707
frame:625  pts:640000  pts_time:13.3333
lavfi.astats.Overall.RMS_level=-29.981864
frame:626  pts:641024  pts_time:13.3547
lavfi.astats.Overall.RMS_level=-24.468662
frame:627  pts:642047  pts_time:13.376
lavfi.astats.Overall.RMS_level=-18.976660
frame:628  pts:643071  pts_time:13.3973
lavfi.astats.Overall.RMS_level=-21.691913
frame:629  pts:644095  pts_time:13.4186
lavfi.astats.Overall.RMS_level=-22.558738
frame:630  pts:645119  pts_time:13.44
lavfi.astats.Overall.RMS_level=-22.103983
frame:631  pts:646143  pts_time:13.4613
lavfi.astats.Overall.RMS_level=-22.972347
frame:632  pts:647167  pts_time:13.4826
lavfi.astats.Overall.RMS_level=-25.282789
frame:633  pts:648191  pts_time:13.504
lavfi.astats.Overall.RMS_level=-23.544309
frame:634  pts:649215  pts_time:13.5253
lavfi.astats.Overall.RMS_level=-23.246476
frame:635  pts:650239  pts_time:13.5466
lavfi.astats.Overall.RMS_level=-24.098147
frame:636  pts:651263  pts_time:13.568
lavfi.astats.Overall.RMS_level=-27.006686
frame:637  pts:652287  pts_time:13.5893
lavfi.astats.Overall.RMS_level=-26.088082
frame:638  pts:653311  pts_time:13.6106
lavfi.astats.Overall.RMS_level=-28.796420
frame:639  pts:654335  pts_time:13.632
lavfi.astats.Overall.RMS_level=-32.932720
frame:640  pts:655359  pts_time:13.6533
lavfi.astats.Overall.RMS_level=-32.692394
frame:641  pts:656383  pts_time:13.6746
lavfi.astats.Overall.RMS_level=-30.512833
frame:642  pts:657407  pts_time:13.696
lavfi.astats.Overall.RMS_level=-33.065248
frame:643  pts:658431  pts_time:13.7173
lavfi.astats.Overall.RMS_level=-34.026299
frame:644  pts:659455  pts_time:13.7386
lavfi.astats.Overall.RMS_level=-28.522106
frame:645  pts:660479  pts_time:13.76
lavfi.astats.Overall.RMS_level=-27.457983
frame:646  pts:661503  pts_time:13.7813
lavfi.astats.Overall.RMS_level=-28.485133
frame:647  pts:662527  pts_time:13.8026
lavfi.astats.Overall.RMS_level=-34.990534
frame:648  pts:663551  pts_time:13.824
lavfi.astats.Overall.RMS_level=-34.261737
frame:649  pts:664575  pts_time:13.8453
lavfi.astats.Overall.RMS_level=-35.580918
frame:650  pts:665599  pts_time:13.8666
lavfi.astats.Overall.RMS_level=-38.014464
frame:651  pts:666623  pts_time:13.888
lavfi.astats.Overall.RMS_level=-44.613956
frame:652  pts:667647  pts_time:13.9093
lavfi.astats.Overall.RMS_level=-45.803227
frame:653  pts:668671  pts_time:13.9306
lavfi.astats.Overall.RMS_level=-58.370257
frame:654  pts:669695  pts_time:13.952
lavfi.astats.Overall.RMS_level=-52.537355
frame:655  pts:670719  pts_time:13.9733
lavfi.astats.Overall.RMS_level=-50.283369
frame:656  pts:671743  pts_time:13.9946
lavfi.astats.Overall.RMS_level=-58.509994
frame:657  pts:672767  pts_time:14.016
lavfi.astats.Overall.RMS_level=-53.158237
frame:658  pts:673791  pts_time:14.0373
lavfi.astats.Overall.RMS_level=-31.447461
frame:659  pts:674815  pts_time:14.0586
lavfi.astats.Overall.RMS_level=-25.330402
frame:660  pts:675839  pts_time:14.08
lavfi.astats.Overall.RMS_level=-25.577144
frame:661  pts:676863  pts_time:14.1013
lavfi.astats.Overall.RMS_level=-23.037625
frame:662  pts:677887  pts_time:14.1226
lavfi.astats.Overall.RMS_level=-24.117176
frame:663  pts:678911  pts_time:14.144
lavfi.astats.Overall.RMS_level=-24.251275
frame:664  pts:679935  pts_time:14.1653
lavfi.astats.Overall.RMS_level=-23.449181
frame:665  pts:680959  pts_time:14.1866
lavfi.astats.Overall.RMS_level=-29.463681
frame:666  pts:681983  pts_time:14.208
lavfi.astats.Overall.RMS_level=-30.557564
frame:667  pts:683007  pts_time:14.2293
lavfi.astats.Overall.RMS_level=-31.105525
frame:668  pts:684031  pts_time:14.2506
lavfi.astats.Overall.RMS_level=-32.342421
frame:669  pts:685055  pts_time:14.272
lavfi.astats.Overall.RMS_level=-37.045563
frame:670  pts:686079  pts_time:14.2933
lavfi.astats.Overall.RMS_level=-36.301144
frame:671  pts:687103  pts_time:14.3146
lavfi.astats.Overall.RMS_level=-36.390845
frame:672  pts:688127  pts_time:14.336
lavfi.astats.Overall.RMS_level=-39.156947
frame:673  pts:689151  pts_time:14.3573
lavfi.astats.Overall.RMS_level=-41.799966
frame:674  pts:690175  pts_time:14.3786
lavfi.astats.Overall.RMS_level=-42.848559
frame:675  pts:691199  pts_time:14.4
lavfi.astats.Overall.RMS_level=-40.822983
frame:676  pts:692223  pts_time:14.4213
lavfi.astats.Overall.RMS_level=-36.346287
frame:677  pts:693247  pts_time:14.4426
lavfi.astats.Overall.RMS_level=-30.995078
frame:678  pts:694271  pts_time:14.464
lavfi.astats.Overall.RMS_level=-27.383779
frame:679  pts:695295  pts_time:14.4853
lavfi.astats.Overall.RMS_level=-28.617569
frame:680  pts:696319  pts_time:14.5066
lavfi.astats.Overall.RMS_level=-24.418495
frame:681  pts:697343  pts_time:14.528
lavfi.astats.Overall.RMS_level=-27.761537
frame:682  pts:698367  pts_time:14.5493
lavfi.astats.Overall.RMS_level=-28.689314
frame:683  pts:699391  pts_time:14.5706
lavfi.astats.Overall.RMS_level=-30.430783
frame:684  pts:700415  pts_time:14.592
lavfi.astats.Overall.RMS_level=-31.602228
frame:685  pts:701439  pts_time:14.6133
lavfi.astats.Overall.RMS_level=-34.169503
frame:686  pts:702463  pts_time:14.6346
lavfi.astats.Overall.RMS_level=-39.796222
frame:687  pts:703487  pts_time:14.656
lavfi.astats.Overall.RMS_level=-39.832553
frame:688  pts:704511  pts_time:14.6773
lavfi.astats.Overall.RMS_level=-43.861099
frame:689  pts:705535  pts_time:14.6986
lavfi.astats.Overall.RMS_level=-47.516023
frame:690  pts:706559  pts_time:14.72
lavfi.astats.Overall.RMS_level=-46.992182
frame:691  pts:707583  pts_time:14.7413
lavfi.astats.Overall.RMS_level=-44.776919
frame:692  pts:708607  pts_time:14.7626
lavfi.astats.Overall.RMS_level=-45.916978
frame:693  pts:709631  pts_time:14.784
lavfi.astats.Overall.RMS_level=-51.017297
frame:694  pts:710655  pts_time:14.8053
lavfi.astats.Overall.RMS_level=-47.326139
frame:695  pts:711679  pts_time:14.8266
lavfi.astats.Overall.RMS_level=-48.694697
frame:696  pts:712703  pts_time:14.848
lavfi.astats.Overall.RMS_level=-78.090297
frame:697  pts:713727  pts_time:14.8693
lavfi.astats.Overall.RMS_level=-84.309092
frame:698  pts:714751  pts_time:14.8906
lavfi.astats.Overall.RMS_level=-83.248222
frame:699  pts:715775  pts_time:14.912
lavfi.astats.Overall.RMS_level=-58.718422
frame:700  pts:716799  pts_time:14.9333
lavfi.astats.Overall.RMS_level=-39.407828
frame:701  pts:717823  pts_time:14.9546
lavfi.astats.Overall.RMS_level=-35.687606
frame:702  pts:718847  pts_time:14.976
lavfi.astats.Overall.RMS_level=-33.014895
frame:703  pts:719871  pts_time:14.9973
lavfi.astats.Overall.RMS_level=-31.901331
frame:704  pts:720895  pts_time:15.0186
lavfi.astats.Overall.RMS_level=-32.767394
frame:705  pts:721919  pts_time:15.04
lavfi.astats.Overall.RMS_level=-33.593907
frame:706  pts:722943  pts_time:15.0613
lavfi.astats.Overall.RMS_level=-42.385874
frame:707  pts:723967  pts_time:15.0826
lavfi.astats.Overall.RMS_level=-58.881788
frame:708  pts:724991  pts_time:15.104
lavfi.astats.Overall.RMS_level=-77.530094
frame:709  pts:726015  pts_time:15.1253
lavfi.astats.Overall.RMS_level=-79.499369
frame:710  pts:727039  pts_time:15.1466
lavfi.astats.Overall.RMS_level=-82.698352
frame:711  pts:728063  pts_time:15.168
lavfi.astats.Overall.RMS_level=-85.197813
frame:712  pts:729087  pts_time:15.1893
lavfi.astats.Overall.RMS_level=-84.682153
frame:713  pts:730111  pts_time:15.2106
lavfi.astats.Overall.RMS_level=-88.790577
frame:714  pts:731135  pts_time:15.232
lavfi.astats.Overall.RMS_level=-91.024962
frame:715  pts:732159  pts_time:15.2533
lavfi.astats.Overall.RMS_level=-89.605272
frame:716  pts:733183  pts_time:15.2746
lavfi.astats.Overall.RMS_level=-91.458177
frame:717  pts:734207  pts_time:15.296
lavfi.astats.Overall.RMS_level=-91.653312
frame:718  pts:735231  pts_time:15.3173
lavfi.astats.Overall.RMS_level=-91.999031
frame:719  pts:736255  pts_time:15.3386
lavfi.astats.Overall.RMS_level=-91.392152
frame:720  pts:737279  pts_time:15.36
lavfi.astats.Overall.RMS_level=-87.237856
frame:721  pts:738303  pts_time:15.3813
lavfi.astats.Overall.RMS_level=-68.814722
frame:722  pts:739327  pts_time:15.4026
lavfi.astats.Overall.RMS_level=-63.640858
frame:723  pts:740351  pts_time:15.424
lavfi.astats.Overall.RMS_level=-74.156857
frame:724  pts:741375  pts_time:15.4453
lavfi.astats.Overall.RMS_level=-81.156243
frame:725  pts:742399  pts_time:15.4666
lavfi.astats.Overall.RMS_level=-91.137105
frame:726  pts:743423  pts_time:15.488
lavfi.astats.Overall.RMS_level=-77.227472
frame:727  pts:744447  pts_time:15.5093
lavfi.astats.Overall.RMS_level=-91.433911
frame:728  pts:745471  pts_time:15.5306
lavfi.astats.Overall.RMS_level=-92.065565
frame:729  pts:746495  pts_time:15.552
lavfi.astats.Overall.RMS_level=-92.372165
frame:730  pts:747519  pts_time:15.5733
lavfi.astats.Overall.RMS_level=-91.968640
frame:731  pts:748543  pts_time:15.5946
lavfi.astats.Overall.RMS_level=-92.661168
frame:732  pts:749567  pts_time:15.616
lavfi.astats.Overall.RMS_level=-93.213663
frame:733  pts:750591  pts_time:15.6373
lavfi.astats.Overall.RMS_level=-92.373122
frame:734  pts:751615  pts_time:15.6586
lavfi.astats.Overall.RMS_level=-80.695653
frame:735  pts:752639  pts_time:15.68
lavfi.astats.Overall.RMS_level=-75.517267
frame:736  pts:753663  pts_time:15.7013
lavfi.astats.Overall.RMS_level=-83.403044
frame:737  pts:754687  pts_time:15.7226
lavfi.astats.Overall.RMS_level=-59.544511
frame:738  pts:755711  pts_time:15.744
lavfi.astats.Overall.RMS_level=-54.508448
frame:739  pts:756735  pts_time:15.7653
lavfi.astats.Overall.RMS_level=-63.475584
frame:740  pts:757759  pts_time:15.7866
lavfi.astats.Overall.RMS_level=-63.194098
frame:741  pts:758783  pts_time:15.808
lavfi.astats.Overall.RMS_level=-62.571964
frame:742  pts:759807  pts_time:15.8293
lavfi.astats.Overall.RMS_level=-66.241348
frame:743  pts:760831  pts_time:15.8506
lavfi.astats.Overall.RMS_level=-77.455849
frame:744  pts:761855  pts_time:15.872
lavfi.astats.Overall.RMS_level=-92.010152
frame:745  pts:762879  pts_time:15.8933
lavfi.astats.Overall.RMS_level=-91.689447
frame:746  pts:763903  pts_time:15.9146
lavfi.astats.Overall.RMS_level=-91.575857
frame:747  pts:764927  pts_time:15.936
lavfi.astats.Overall.RMS_level=-91.542477
frame:748  pts:765951  pts_time:15.9573
lavfi.astats.Overall.RMS_level=-62.397962
frame:749  pts:766975  pts_time:15.9786
lavfi.astats.Overall.RMS_level=-67.079692
frame:750  pts:767999  pts_time:16
lavfi.astats.Overall.RMS_level=-74.585169
frame:751  pts:769023  pts_time:16.0213
lavfi.astats.Overall.RMS_level=-39.340368
frame:752  pts:770047  pts_time:16.0426
lavfi.astats.Overall.RMS_level=-27.560685
frame:753  pts:771071  pts_time:16.064
lavfi.astats.Overall.RMS_level=-27.628360
frame:754  pts:772095  pts_time:16.0853
lavfi.astats.Overall.RMS_level=-29.272740
frame:755  pts:773119  pts_time:16.1066
lavfi.astats.Overall.RMS_level=-34.134388
frame:756  pts:774143  pts_time:16.128
lavfi.astats.Overall.RMS_level=-39.387684
frame:757  pts:775167  pts_time:16.1493
lavfi.astats.Overall.RMS_level=-41.469437
frame:758  pts:776191  pts_time:16.1706
lavfi.astats.Overall.RMS_level=-38.499145
frame:759  pts:777215  pts_time:16.192
lavfi.astats.Overall.RMS_level=-32.462366
frame:760  pts:778239  pts_time:16.2133
lavfi.astats.Overall.RMS_level=-25.845906
frame:761  pts:779263  pts_time:16.2346
lavfi.astats.Overall.RMS_level=-18.840911
frame:762  pts:780287  pts_time:16.256
lavfi.astats.Overall.RMS_level=-16.775998
frame:763  pts:781311  pts_time:16.2773
lavfi.astats.Overall.RMS_level=-18.720106
frame:764  pts:782335  pts_time:16.2986
lavfi.astats.Overall.RMS_level=-19.160002
frame:765  pts:783359  pts_time:16.32
lavfi.astats.Overall.RMS_level=-21.265579
frame:766  pts:784383  pts_time:16.3413
lavfi.astats.Overall.RMS_level=-24.092821
frame:767  pts:785407  pts_time:16.3626
lavfi.astats.Overall.RMS_level=-25.571515
frame:768  pts:786431  pts_time:16.384
lavfi.astats.Overall.RMS_level=-28.658964
frame:769  pts:787455  pts_time:16.4053
lavfi.astats.Overall.RMS_level=-30.807782
frame:770  pts:788479  pts_time:16.4266
lavfi.astats.Overall.RMS_level=-32.028978
frame:771  pts:789503  pts_time:16.448
lavfi.astats.Overall.RMS_level=-32.599103
frame:772  pts:790527  pts_time:16.4693
lavfi.astats.Overall.RMS_level=-35.247016
frame:773  pts:791551  pts_time:16.4906
lavfi.astats.Overall.RMS_level=-34.779254
frame:774  pts:792575  pts_time:16.512
lavfi.astats.Overall.RMS_level=-35.293123
frame:775  pts:793599  pts_time:16.5333
lavfi.astats.Overall.RMS_level=-36.462359
frame:776  pts:794623  pts_time:16.5546
lavfi.astats.Overall.RMS_level=-39.596368
frame:777  pts:795647  pts_time:16.576
lavfi.astats.Overall.RMS_level=-37.620502
frame:778  pts:796671  pts_time:16.5973
lavfi.astats.Overall.RMS_level=-42.033402
frame:779  pts:797695  pts_time:16.6186
lavfi.astats.Overall.RMS_level=-36.550478
frame:780  pts:798719  pts_time:16.64
lavfi.astats.Overall.RMS_level=-30.218142
frame:781  pts:799743  pts_time:16.6613
lavfi.astats.Overall.RMS_level=-29.499966
frame:782  pts:800767  pts_time:16.6826
lavfi.astats.Overall.RMS_level=-24.601555
frame:783  pts:801791  pts_time:16.704
lavfi.astats.Overall.RMS_level=-24.719263
frame:784  pts:802815  pts_time:16.7253
lavfi.astats.Overall.RMS_level=-29.540359
frame:785  pts:803839  pts_time:16.7466
lavfi.astats.Overall.RMS_level=-30.925391
frame:786  pts:804863  pts_time:16.768
lavfi.astats.Overall.RMS_level=-33.611551
frame:787  pts:805887  pts_time:16.7893
lavfi.astats.Overall.RMS_level=-31.968316
frame:788  pts:806911  pts_time:16.8106
lavfi.astats.Overall.RMS_level=-35.742792
frame:789  pts:807935  pts_time:16.832
lavfi.astats.Overall.RMS_level=-40.855102
frame:790  pts:808959  pts_time:16.8533
lavfi.astats.Overall.RMS_level=-37.012810
frame:791  pts:809983  pts_time:16.8746
lavfi.astats.Overall.RMS_level=-29.265300
frame:792  pts:811007  pts_time:16.896
lavfi.astats.Overall.RMS_level=-26.259242
frame:793  pts:812031  pts_time:16.9173
lavfi.astats.Overall.RMS_level=-19.415027
frame:794  pts:813055  pts_time:16.9386
lavfi.astats.Overall.RMS_level=-20.388580
frame:795  pts:814079  pts_time:16.96
lavfi.astats.Overall.RMS_level=-20.107528
frame:796  pts:815103  pts_time:16.9813
lavfi.astats.Overall.RMS_level=-23.688795
frame:797  pts:816127  pts_time:17.0026
lavfi.astats.Overall.RMS_level=-29.434135
frame:798  pts:817151  pts_time:17.024
lavfi.astats.Overall.RMS_level=-30.020777
frame:799  pts:818175  pts_time:17.0453
lavfi.astats.Overall.RMS_level=-30.503096
frame:800  pts:819199  pts_time:17.0666
lavfi.astats.Overall.RMS_level=-34.797566
frame:801  pts:820223  pts_time:17.088
lavfi.astats.Overall.RMS_level=-31.875050
frame:802  pts:821247  pts_time:17.1093
lavfi.astats.Overall.RMS_level=-33.695929
frame:803  pts:822271  pts_time:17.1306
lavfi.astats.Overall.RMS_level=-34.923357
frame:804  pts:823295  pts_time:17.152
lavfi.astats.Overall.RMS_level=-34.613604
frame:805  pts:824319  pts_time:17.1733
lavfi.astats.Overall.RMS_level=-33.238193
frame:806  pts:825343  pts_time:17.1946
lavfi.astats.Overall.RMS_level=-33.797623
frame:807  pts:826367  pts_time:17.216
lavfi.astats.Overall.RMS_level=-34.374011
frame:808  pts:827391  pts_time:17.2373
lavfi.astats.Overall.RMS_level=-34.654966
frame:809  pts:828415  pts_time:17.2586
lavfi.astats.Overall.RMS_level=-36.824027
frame:810  pts:829439  pts_time:17.28
lavfi.astats.Overall.RMS_level=-37.961325
frame:811  pts:830463  pts_time:17.3013
lavfi.astats.Overall.RMS_level=-36.676780
frame:812  pts:831487  pts_time:17.3226
lavfi.astats.Overall.RMS_level=-32.924469
frame:813  pts:832511  pts_time:17.344
lavfi.astats.Overall.RMS_level=-26.032641
frame:814  pts:833535  pts_time:17.3653
lavfi.astats.Overall.RMS_level=-28.199655
frame:815  pts:834559  pts_time:17.3866
lavfi.astats.Overall.RMS_level=-29.001490
frame:816  pts:835583  pts_time:17.408
lavfi.astats.Overall.RMS_level=-27.849061
frame:817  pts:836607  pts_time:17.4293
lavfi.astats.Overall.RMS_level=-30.178336
frame:818  pts:837631  pts_time:17.4506
lavfi.astats.Overall.RMS_level=-33.167016
frame:819  pts:838655  pts_time:17.472
lavfi.astats.Overall.RMS_level=-35.387055
frame:820  pts:839679  pts_time:17.4933
lavfi.astats.Overall.RMS_level=-39.861851
frame:821  pts:840703  pts_time:17.5146
lavfi.astats.Overall.RMS_level=-41.200252
frame:822  pts:841727  pts_time:17.536
lavfi.astats.Overall.RMS_level=-44.138018
frame:823  pts:842751  pts_time:17.5573
lavfi.astats.Overall.RMS_level=-50.359572
frame:824  pts:843775  pts_time:17.5786
lavfi.astats.Overall.RMS_level=-52.207394
frame:825  pts:844799  pts_time:17.6
lavfi.astats.Overall.RMS_level=-51.836990
frame:826  pts:845823  pts_time:17.6213
lavfi.astats.Overall.RMS_level=-51.470113
frame:827  pts:846847  pts_time:17.6426
lavfi.astats.Overall.RMS_level=-50.656155
frame:828  pts:847871  pts_time:17.664
lavfi.astats.Overall.RMS_level=-61.653183
frame:829  pts:848895  pts_time:17.6853
lavfi.astats.Overall.RMS_level=-72.192954
frame:830  pts:849919  pts_time:17.7066
lavfi.astats.Overall.RMS_level=-75.301606
frame:831  pts:850943  pts_time:17.728
lavfi.astats.Overall.RMS_level=-79.645553
frame:832  pts:851967  pts_time:17.7493
lavfi.astats.Overall.RMS_level=-63.956591
frame:833  pts:852991  pts_time:17.7706
lavfi.astats.Overall.RMS_level=-48.526972
frame:834  pts:854015  pts_time:17.792
lavfi.astats.Overall.RMS_level=-55.854460
frame:835  pts:855039  pts_time:17.8133
lavfi.astats.Overall.RMS_level=-41.376222
frame:836  pts:856063  pts_time:17.8346
lavfi.astats.Overall.RMS_level=-35.609695
frame:837  pts:857087  pts_time:17.856
lavfi.astats.Overall.RMS_level=-46.309081
frame:838  pts:858111  pts_time:17.8773
lavfi.astats.Overall.RMS_level=-44.652150
frame:839  pts:859135  pts_time:17.8986
lavfi.astats.Overall.RMS_level=-41.661252
frame:840  pts:860159  pts_time:17.92
lavfi.astats.Overall.RMS_level=-37.271403
frame:841  pts:861183  pts_time:17.9413
lavfi.astats.Overall.RMS_level=-29.180474
frame:842  pts:862207  pts_time:17.9626
lavfi.astats.Overall.RMS_level=-23.932223
frame:843  pts:863231  pts_time:17.984
lavfi.astats.Overall.RMS_level=-24.249064
frame:844  pts:864255  pts_time:18.0053
lavfi.astats.Overall.RMS_level=-19.480567
frame:845  pts:865279  pts_time:18.0266
lavfi.astats.Overall.RMS_level=-18.416198
frame:846  pts:866303  pts_time:18.048
lavfi.astats.Overall.RMS_level=-18.867118
frame:847  pts:867327  pts_time:18.0693
lavfi.astats.Overall.RMS_level=-18.141289
frame:848  pts:868351  pts_time:18.0906
lavfi.astats.Overall.RMS_level=-26.426308
frame:849  pts:869375  pts_time:18.112
lavfi.astats.Overall.RMS_level=-27.468403
frame:850  pts:870399  pts_time:18.1333
lavfi.astats.Overall.RMS_level=-33.147138
frame:851  pts:871423  pts_time:18.1546
lavfi.astats.Overall.RMS_level=-35.813294
frame:852  pts:872447  pts_time:18.176
lavfi.astats.Overall.RMS_level=-39.689198
frame:853  pts:873471  pts_time:18.1973
lavfi.astats.Overall.RMS_level=-43.319433
frame:854  pts:874495  pts_time:18.2186
lavfi.astats.Overall.RMS_level=-44.896479
frame:855  pts:875519  pts_time:18.24
lavfi.astats.Overall.RMS_level=-52.457190
frame:856  pts:876543  pts_time:18.2613
lavfi.astats.Overall.RMS_level=-55.311342
frame:857  pts:877567  pts_time:18.2826
lavfi.astats.Overall.RMS_level=-54.787808
frame:858  pts:878591  pts_time:18.304
lavfi.astats.Overall.RMS_level=-59.655096
frame:859  pts:879615  pts_time:18.3253
lavfi.astats.Overall.RMS_level=-64.991581
frame:860  pts:880639  pts_time:18.3466
lavfi.astats.Overall.RMS_level=-78.315462
frame:861  pts:881663  pts_time:18.368
lavfi.astats.Overall.RMS_level=-75.782097
frame:862  pts:882687  pts_time:18.3893
lavfi.astats.Overall.RMS_level=-85.426276
frame:863  pts:883711  pts_time:18.4106
lavfi.astats.Overall.RMS_level=-84.734659
frame:864  pts:884735  pts_time:18.432
lavfi.astats.Overall.RMS_level=-87.368744
frame:865  pts:885759  pts_time:18.4533
lavfi.astats.Overall.RMS_level=-83.463736
frame:866  pts:886783  pts_time:18.4746
lavfi.astats.Overall.RMS_level=-45.692380
frame:867  pts:887807  pts_time:18.496
lavfi.astats.Overall.RMS_level=-33.688082
frame:868  pts:888831  pts_time:18.5173
lavfi.astats.Overall.RMS_level=-24.769152
frame:869  pts:889855  pts_time:18.5386
lavfi.astats.Overall.RMS_level=-21.065604
frame:870  pts:890879  pts_time:18.56
lavfi.astats.Overall.RMS_level=-20.823337
frame:871  pts:891903  pts_time:18.5813
lavfi.astats.Overall.RMS_level=-21.451014
frame:872  pts:892927  pts_time:18.6026
lavfi.astats.Overall.RMS_level=-17.894335
frame:873  pts:893951  pts_time:18.624
lavfi.astats.Overall.RMS_level=-20.539756
frame:874  pts:894975  pts_time:18.6453
lavfi.astats.Overall.RMS_level=-23.014625
frame:875  pts:895999  pts_time:18.6666
lavfi.astats.Overall.RMS_level=-23.756034
frame:876  pts:897023  pts_time:18.688
lavfi.astats.Overall.RMS_level=-21.663653
frame:877  pts:898047  pts_time:18.7093
lavfi.astats.Overall.RMS_level=-24.220568
frame:878  pts:899071  pts_time:18.7306
lavfi.astats.Overall.RMS_level=-29.038012
frame:879  pts:900095  pts_time:18.752
lavfi.astats.Overall.RMS_level=-30.969420
frame:880  pts:901119  pts_time:18.7733
lavfi.astats.Overall.RMS_level=-31.307951
frame:881  pts:902143  pts_time:18.7946
lavfi.astats.Overall.RMS_level=-31.991614
frame:882  pts:903167  pts_time:18.816
lavfi.astats.Overall.RMS_level=-32.472619
frame:883  pts:904191  pts_time:18.8373
lavfi.astats.Overall.RMS_level=-35.434725
frame:884  pts:905215  pts_time:18.8586
lavfi.astats.Overall.RMS_level=-32.248799
frame:885  pts:906239  pts_time:18.88
lavfi.astats.Overall.RMS_level=-30.302824
frame:886  pts:907263  pts_time:18.9013
lavfi.astats.Overall.RMS_level=-25.378388
frame:887  pts:908287  pts_time:18.9226
lavfi.astats.Overall.RMS_level=-18.885155
frame:888  pts:909311  pts_time:18.944
lavfi.astats.Overall.RMS_level=-18.886080
frame:889  pts:910335  pts_time:18.9653
lavfi.astats.Overall.RMS_level=-20.503028
frame:890  pts:911359  pts_time:18.9866
lavfi.astats.Overall.RMS_level=-22.403346
frame:891  pts:912383  pts_time:19.008
lavfi.astats.Overall.RMS_level=-31.003522
frame:892  pts:913407  pts_time:19.0293
lavfi.astats.Overall.RMS_level=-30.168417
frame:893  pts:914431  pts_time:19.0506
lavfi.astats.Overall.RMS_level=-36.850145
frame:894  pts:915455  pts_time:19.072
lavfi.astats.Overall.RMS_level=-34.810520
frame:895  pts:916479  pts_time:19.0933
lavfi.astats.Overall.RMS_level=-23.839689
frame:896  pts:917503  pts_time:19.1146
lavfi.astats.Overall.RMS_level=-25.163824
frame:897  pts:918527  pts_time:19.136
lavfi.astats.Overall.RMS_level=-28.948320
frame:898  pts:919551  pts_time:19.1573
lavfi.astats.Overall.RMS_level=-28.452077
frame:899  pts:920575  pts_time:19.1786
lavfi.astats.Overall.RMS_level=-33.740650
frame:900  pts:921599  pts_time:19.2
lavfi.astats.Overall.RMS_level=-30.740082
frame:901  pts:922623  pts_time:19.2213
lavfi.astats.Overall.RMS_level=-32.571444
frame:902  pts:923647  pts_time:19.2426
lavfi.astats.Overall.RMS_level=-34.913046
frame:903  pts:924671  pts_time:19.264
lavfi.astats.Overall.RMS_level=-37.548297
frame:904  pts:925695  pts_time:19.2853
lavfi.astats.Overall.RMS_level=-38.484204
frame:905  pts:926719  pts_time:19.3066
lavfi.astats.Overall.RMS_level=-40.629239
frame:906  pts:927743  pts_time:19.328
lavfi.astats.Overall.RMS_level=-41.164928
frame:907  pts:928767  pts_time:19.3493
lavfi.astats.Overall.RMS_level=-44.840705
frame:908  pts:929791  pts_time:19.3706
lavfi.astats.Overall.RMS_level=-45.921336
frame:909  pts:930815  pts_time:19.392
lavfi.astats.Overall.RMS_level=-47.441333
frame:910  pts:931839  pts_time:19.4133
lavfi.astats.Overall.RMS_level=-48.269237
frame:911  pts:932863  pts_time:19.4346
lavfi.astats.Overall.RMS_level=-42.512215
frame:912  pts:933887  pts_time:19.456
lavfi.astats.Overall.RMS_level=-31.644084
frame:913  pts:934911  pts_time:19.4773
lavfi.astats.Overall.RMS_level=-27.101743
frame:914  pts:935935  pts_time:19.4986
lavfi.astats.Overall.RMS_level=-26.696485
frame:915  pts:936959  pts_time:19.52
lavfi.astats.Overall.RMS_level=-25.895631
frame:916  pts:937983  pts_time:19.5413
lavfi.astats.Overall.RMS_level=-24.187836
frame:917  pts:939007  pts_time:19.5626
lavfi.astats.Overall.RMS_level=-23.111868
frame:918  pts:940031  pts_time:19.584
lavfi.astats.Overall.RMS_level=-23.653641
frame:919  pts:941055  pts_time:19.6053
lavfi.astats.Overall.RMS_level=-23.538462
frame:920  pts:942079  pts_time:19.6266
lavfi.astats.Overall.RMS_level=-24.998850
frame:921  pts:943103  pts_time:19.648
lavfi.astats.Overall.RMS_level=-23.706947
frame:922  pts:944127  pts_time:19.6693
lavfi.astats.Overall.RMS_level=-21.430355
frame:923  pts:945151  pts_time:19.6906
lavfi.astats.Overall.RMS_level=-24.350067
frame:924  pts:946175  pts_time:19.712
lavfi.astats.Overall.RMS_level=-25.818272
frame:925  pts:947199  pts_time:19.7333
lavfi.astats.Overall.RMS_level=-26.356233
frame:926  pts:948223  pts_time:19.7546
lavfi.astats.Overall.RMS_level=-24.882403
frame:927  pts:949247  pts_time:19.776
lavfi.astats.Overall.RMS_level=-23.942282
frame:928  pts:950271  pts_time:19.7973
lavfi.astats.Overall.RMS_level=-26.236955
frame:929  pts:951295  pts_time:19.8186
lavfi.astats.Overall.RMS_level=-21.950926
frame:930  pts:952319  pts_time:19.84
lavfi.astats.Overall.RMS_level=-23.692331
frame:931  pts:953343  pts_time:19.8613
lavfi.astats.Overall.RMS_level=-26.837229
frame:932  pts:954367  pts_time:19.8826
lavfi.astats.Overall.RMS_level=-28.203166
frame:933  pts:955391  pts_time:19.904
lavfi.astats.Overall.RMS_level=-31.137722
frame:934  pts:956415  pts_time:19.9253
lavfi.astats.Overall.RMS_level=-30.107023
frame:935  pts:957439  pts_time:19.9466
lavfi.astats.Overall.RMS_level=-26.110167
frame:936  pts:958463  pts_time:19.968
lavfi.astats.Overall.RMS_level=-26.503922
frame:937  pts:959487  pts_time:19.9893
lavfi.astats.Overall.RMS_level=-23.736982
frame:938  pts:960511  pts_time:20.0106
lavfi.astats.Overall.RMS_level=-20.706097
frame:939  pts:961535  pts_time:20.032
lavfi.astats.Overall.RMS_level=-24.771937
frame:940  pts:962559  pts_time:20.0533
lavfi.astats.Overall.RMS_level=-29.441924
frame:941  pts:963583  pts_time:20.0746
lavfi.astats.Overall.RMS_level=-32.790192
frame:942  pts:964607  pts_time:20.096
lavfi.astats.Overall.RMS_level=-38.675204
frame:943  pts:965631  pts_time:20.1173
lavfi.astats.Overall.RMS_level=-35.078771
frame:944  pts:966655  pts_time:20.1386
lavfi.astats.Overall.RMS_level=-41.922925
frame:945  pts:967679  pts_time:20.16
lavfi.astats.Overall.RMS_level=-52.249125
frame:946  pts:968703  pts_time:20.1813
lavfi.astats.Overall.RMS_level=-57.424203
frame:947  pts:969727  pts_time:20.2026
lavfi.astats.Overall.RMS_level=-55.189327
frame:948  pts:970751  pts_time:20.224
lavfi.astats.Overall.RMS_level=-43.036032
frame:949  pts:971775  pts_time:20.2453
lavfi.astats.Overall.RMS_level=-38.464991
frame:950  pts:972799  pts_time:20.2666
lavfi.astats.Overall.RMS_level=-44.442448
